<svg width="16" height="16" viewBox="0 0 16 16" fill="none" xmlns="http://www.w3.org/2000/svg">
<g clip-path="url(#clip0_262_27)">
<path fill-rule="evenodd" clip-rule="evenodd" d="M11.75 0.189453L12.2803 0.719783L15.2803 3.71978L15.8107 4.25011L15.2803 4.78044L5.15901 14.9017C4.45575 15.605 3.50192 16.0001 2.50736 16.0001H0.75H0V15.2501V13.4927C0 12.4982 0.395088 11.5443 1.09835 10.8411L11.2197 0.719783L11.75 0.189453ZM11.75 2.31077L9.81066 4.25011L11.75 6.18945L13.6893 4.25011L11.75 2.31077ZM2.15901 11.9017L8.75 5.31077L10.6893 7.25011L4.09835 13.8411C3.67639 14.263 3.1041 14.5001 2.50736 14.5001H1.5V13.4927C1.5 12.896 1.73705 12.3237 2.15901 11.9017ZM9 16.0001H16V14.5001H9V16.0001Z" fill="white"/>
</g>
<defs>
<clipPath id="clip0_262_27">
<rect width="16" height="16" fill="white"/>
</clipPath>
</defs>
</svg>
