<svg width="12" height="12" viewBox="0 0 12 12" fill="none" xmlns="http://www.w3.org/2000/svg">
<path fill-rule="evenodd" clip-rule="evenodd" d="M10.4697 11.5303V11.5303C10.7626 11.8232 11.2375 11.8232 11.5304 11.5304V11.5304C11.8232 11.2375 11.8232 10.7626 11.5303 10.4697V10.4697L7.76775 6.7071C7.37723 6.31657 7.37723 5.68341 7.76775 5.29289L11.5303 1.53032V1.53032C11.8232 1.23744 11.8232 0.762535 11.5303 0.469639V0.469639C11.2374 0.17676 10.7626 0.176769 10.4697 0.469661V0.469661L6.7071 4.23223C6.31657 4.62275 5.68341 4.62275 5.29289 4.23223L1.53032 0.469661V0.469661C1.23743 0.176768 0.762554 0.176768 0.469661 0.469661V0.469661C0.176768 0.762554 0.176768 1.23743 0.469661 1.53032V1.53032L4.23223 5.29289C4.62275 5.68341 4.62275 6.31657 4.23223 6.7071L0.469661 10.4697V10.4697C0.176769 10.7626 0.17676 11.2374 0.469639 11.5303V11.5303C0.762536 11.8232 1.23744 11.8232 1.53032 11.5303V11.5303L5.29289 7.76775C5.68341 7.37723 6.31657 7.37723 6.7071 7.76775L10.4697 11.5303Z" fill="white"/>
</svg>
