<svg width="16" height="16" viewBox="0 0 16 16" fill="none" xmlns="http://www.w3.org/2000/svg">
<g clip-path="url(#clip0_262_15)">
<path fill-rule="evenodd" clip-rule="evenodd" d="M4.02168 4.76956C6.11619 2.33722 9.88374 2.33722 11.9783 4.76956L14.7602 8.00023L11.9783 11.2309C9.88374 13.6632 6.1162 13.6632 4.02168 11.2309L1.23971 8.00023L4.02168 4.76956ZM13.1149 3.79078C10.422 0.663487 5.57797 0.66349 2.88503 3.79078L-0.318359 7.51084V8.48962L2.88503 12.2096C5.57797 15.3369 10.422 15.3369 13.1149 12.2096L16.3183 8.48962V7.51084L13.1149 3.79078ZM6.49997 8.00023C6.49997 7.17181 7.17154 6.50023 7.99997 6.50023C8.82839 6.50023 9.49997 7.17181 9.49997 8.00023C9.49997 8.82866 8.82839 9.50023 7.99997 9.50023C7.17154 9.50023 6.49997 8.82866 6.49997 8.00023ZM7.99997 5.00023C6.34311 5.00023 4.99997 6.34338 4.99997 8.00023C4.99997 9.65709 6.34311 11.0002 7.99997 11.0002C9.65682 11.0002 11 9.65709 11 8.00023C11 6.34338 9.65682 5.00023 7.99997 5.00023Z" fill="white"/>
</g>
<defs>
<clipPath id="clip0_262_15">
<rect width="16" height="16" fill="white"/>
</clipPath>
</defs>
</svg>
