<svg width="16" height="16" viewBox="0 0 16 16" fill="none" xmlns="http://www.w3.org/2000/svg">
<g clip-path="url(#clip0_262_13)">
<path fill-rule="evenodd" clip-rule="evenodd" d="M0.191137 2.06204L0.751694 2.56031L14.2517 14.5603L14.8122 15.0586L15.8088 13.9375L15.2482 13.4392L13.4399 11.8318L16.3183 8.48914V7.51035L13.1149 3.79029C10.6442 0.921057 6.36413 0.684482 3.59378 3.07968L1.74824 1.43919L1.18768 0.940918L0.191137 2.06204ZM14.7602 7.99974L12.3187 10.8352L10.6699 9.36954C11.249 8.24147 11.0661 6.82323 10.1213 5.87841C9.08954 4.84666 7.49326 4.72352 6.32676 5.50899L4.72751 4.08743C6.88288 2.36303 10.1023 2.59052 11.9783 4.76907L14.7602 7.99974ZM7.52702 6.57589L9.46929 8.30235C9.56713 7.82507 9.43091 7.30935 9.06063 6.93907C8.64578 6.52422 8.0484 6.40316 7.52702 6.57589ZM-0.318359 7.51035L1.40386 5.51036L2.54051 6.48914L1.23971 7.99974L4.02168 11.2305C5.52853 12.9803 7.90301 13.4732 9.89972 12.7015L10.4405 14.1006C7.88008 15.0902 4.82516 14.4623 2.88503 12.2092L-0.318359 8.48914V7.51035Z" fill="white"/>
</g>
<defs>
<clipPath id="clip0_262_13">
<rect width="16" height="16" fill="white"/>
</clipPath>
</defs>
</svg>
