<svg width="14" height="14" viewBox="0 0 14 14" fill="none" xmlns="http://www.w3.org/2000/svg">
<path d="M5.79012 1.6284C5.36214 3.47981 4.76296 7.29843 5.79012 9.88651H1C1.18107 7.73553 2.39259 3.49753 5.79012 1.6284Z" fill="white"/>
<path d="M7.47407 1C7.47407 0.779086 7.29499 0.6 7.07407 0.6C6.85316 0.6 6.67407 0.779086 6.67407 1H7.47407ZM13.0988 11.4026L13.4906 11.4829L13.589 11.0026H13.0988V11.4026ZM1 11.4026V11.0026H0.576436L0.600654 11.4255L1 11.4026ZM11.4691 13.294L11.4773 13.6939L11.5381 13.6927L11.5958 13.6734L11.4691 13.294ZM5.79012 1.6284L6.17985 1.71849L6.3814 0.846573L5.59732 1.27793L5.79012 1.6284ZM5.79012 9.88651V10.2865C5.92266 10.2865 6.0466 10.2209 6.12105 10.1112C6.1955 10.0016 6.2108 9.86215 6.16191 9.73896L5.79012 9.88651ZM1 9.88651L0.60141 9.85296L0.564913 10.2865H1V9.88651ZM1.33682 12.6264L1.70786 12.477L1.69881 12.4545L1.68711 12.4333L1.33682 12.6264ZM9.88889 13.3226V13.7227L9.89535 13.7226L9.88889 13.3226ZM6.67407 1V11.4026H7.47407V1H6.67407ZM7.07407 11.8026H13.0988V11.0026H7.07407V11.8026ZM7.07407 11.0026H1V11.8026H7.07407V11.0026ZM11.5958 13.6734C12.1258 13.4965 13.2157 12.8247 13.4906 11.4829L12.7069 11.3223C12.5077 12.2947 11.7013 12.7948 11.3425 12.9146L11.5958 13.6734ZM5.4004 1.53831C5.18272 2.47999 4.92132 3.92181 4.84494 5.46138C4.76891 6.99373 4.87385 8.66217 5.41833 10.0341L6.16191 9.73896C5.67923 8.52277 5.57019 6.98786 5.64395 5.50103C5.71736 4.02142 5.96955 2.62822 6.17985 1.71849L5.4004 1.53831ZM5.79012 9.48652H1V10.2865H5.79012V9.48652ZM1.39859 9.92007C1.48543 8.88853 1.82219 7.3392 2.54946 5.82494C3.27652 4.31111 4.37962 2.86091 5.98293 1.97886L5.59732 1.27793C3.8031 2.26501 2.60167 3.86838 1.82832 5.47859C1.05518 7.08835 0.695645 8.73352 0.60141 9.85296L1.39859 9.92007ZM0.600654 11.4255C0.620963 11.7801 0.72392 12.3432 0.986532 12.8196L1.68711 12.4333C1.49964 12.0933 1.41523 11.657 1.39935 11.3797L0.600654 11.4255ZM9.89535 13.7226C10.4808 13.7131 11.0202 13.7032 11.4773 13.6939L11.461 12.8941C11.0051 12.9033 10.4668 12.9132 9.88243 12.9227L9.89535 13.7226ZM0.965778 12.7759C1.02692 12.9277 1.14562 13.1453 1.31765 13.3324C1.48548 13.5148 1.75616 13.7226 2.11719 13.7226V12.9226C2.07822 12.9226 2.00544 12.8984 1.90645 12.7908C1.81166 12.6877 1.74018 12.5573 1.70786 12.477L0.965778 12.7759ZM2.11719 13.7226C2.11797 13.7226 2.11877 13.7226 2.11958 13.7226C2.1204 13.7226 2.12123 13.7226 2.12208 13.7226C2.12293 13.7226 2.1238 13.7226 2.12469 13.7226C2.12557 13.7226 2.12647 13.7226 2.12739 13.7226C2.12831 13.7226 2.12925 13.7226 2.1302 13.7226C2.13115 13.7226 2.13212 13.7226 2.13311 13.7226C2.1341 13.7226 2.1351 13.7226 2.13613 13.7226C2.13715 13.7226 2.13819 13.7226 2.13924 13.7226C2.1403 13.7226 2.14137 13.7226 2.14246 13.7226C2.14355 13.7226 2.14465 13.7226 2.14578 13.7226C2.1469 13.7226 2.14804 13.7226 2.1492 13.7226C2.15035 13.7226 2.15153 13.7226 2.15272 13.7226C2.15391 13.7226 2.15511 13.7226 2.15634 13.7226C2.15756 13.7226 2.1588 13.7226 2.16006 13.7226C2.16131 13.7226 2.16259 13.7226 2.16388 13.7226C2.16517 13.7226 2.16647 13.7226 2.1678 13.7226C2.16912 13.7226 2.17046 13.7226 2.17181 13.7226C2.17317 13.7226 2.17454 13.7226 2.17593 13.7226C2.17732 13.7226 2.17872 13.7226 2.18015 13.7226C2.18157 13.7226 2.18301 13.7226 2.18446 13.7226C2.18591 13.7226 2.18738 13.7226 2.18887 13.7226C2.19036 13.7226 2.19186 13.7226 2.19338 13.7226C2.1949 13.7226 2.19643 13.7226 2.19798 13.7226C2.19954 13.7226 2.2011 13.7226 2.20269 13.7226C2.20427 13.7226 2.20587 13.7226 2.20749 13.7226C2.2091 13.7226 2.21073 13.7226 2.21238 13.7226C2.21403 13.7226 2.21569 13.7226 2.21737 13.7226C2.21905 13.7226 2.22075 13.7226 2.22246 13.7226C2.22417 13.7226 2.2259 13.7226 2.22764 13.7226C2.22938 13.7226 2.23114 13.7226 2.23292 13.7226C2.23469 13.7226 2.23648 13.7226 2.23829 13.7226C2.2401 13.7226 2.24192 13.7226 2.24376 13.7226C2.24559 13.7226 2.24745 13.7226 2.24932 13.7226C2.25118 13.7226 2.25307 13.7226 2.25497 13.7226C2.25687 13.7226 2.25878 13.7226 2.26072 13.7226C2.26265 13.7226 2.26459 13.7226 2.26656 13.7226C2.26852 13.7226 2.27049 13.7226 2.27249 13.7226C2.27448 13.7226 2.27649 13.7226 2.27851 13.7226C2.28054 13.7226 2.28258 13.7226 2.28463 13.7226C2.28668 13.7226 2.28875 13.7226 2.29084 13.7226C2.29292 13.7226 2.29502 13.7226 2.29714 13.7226C2.29925 13.7226 2.30138 13.7226 2.30353 13.7226C2.30568 13.7226 2.30784 13.7226 2.31001 13.7226C2.31219 13.7226 2.31438 13.7226 2.31658 13.7226C2.31879 13.7226 2.32101 13.7226 2.32325 13.7226C2.32548 13.7226 2.32773 13.7226 2.33 13.7226C2.33227 13.7226 2.33455 13.7226 2.33684 13.7226C2.33914 13.7226 2.34145 13.7226 2.34377 13.7226C2.3461 13.7226 2.34844 13.7226 2.35079 13.7226C2.35315 13.7226 2.35552 13.7226 2.3579 13.7226C2.36029 13.7226 2.36269 13.7226 2.3651 13.7226C2.36751 13.7226 2.36994 13.7226 2.37239 13.7226C2.37483 13.7226 2.37729 13.7226 2.37976 13.7226C2.38223 13.7226 2.38472 13.7226 2.38722 13.7226C2.38972 13.7226 2.39224 13.7226 2.39477 13.7226C2.3973 13.7226 2.39984 13.7226 2.4024 13.7226C2.40496 13.7226 2.40753 13.7226 2.41012 13.7226C2.41271 13.7226 2.41531 13.7226 2.41793 13.7226C2.42054 13.7226 2.42317 13.7226 2.42582 13.7226C2.42846 13.7226 2.43112 13.7226 2.4338 13.7226C2.43647 13.7226 2.43916 13.7226 2.44186 13.7226C2.44456 13.7226 2.44728 13.7226 2.45001 13.7226C2.45274 13.7226 2.45548 13.7226 2.45824 13.7226C2.461 13.7226 2.46377 13.7226 2.46655 13.7226C2.46934 13.7226 2.47214 13.7226 2.47495 13.7226C2.47777 13.7226 2.4806 13.7226 2.48344 13.7226C2.48628 13.7226 2.48913 13.7226 2.492 13.7226C2.49487 13.7226 2.49776 13.7226 2.50065 13.7226C2.50355 13.7226 2.50646 13.7226 2.50939 13.7226C2.51231 13.7226 2.51525 13.7226 2.5182 13.7226C2.52115 13.7226 2.52412 13.7226 2.5271 13.7226C2.53008 13.7226 2.53307 13.7226 2.53608 13.7226C2.53908 13.7226 2.5421 13.7226 2.54513 13.7226C2.54817 13.7226 2.55122 13.7226 2.55428 13.7226C2.55734 13.7226 2.56041 13.7226 2.5635 13.7226C2.56658 13.7226 2.56968 13.7226 2.5728 13.7226C2.57591 13.7226 2.57904 13.7226 2.58218 13.7226C2.58532 13.7226 2.58847 13.7226 2.59164 13.7226C2.59481 13.7226 2.59799 13.7226 2.60118 13.7226C2.60438 13.7226 2.60758 13.7226 2.6108 13.7226C2.61402 13.7226 2.61725 13.7226 2.6205 13.7226C2.62375 13.7226 2.62701 13.7226 2.63028 13.7226C2.63355 13.7226 2.63684 13.7226 2.64013 13.7226C2.64343 13.7226 2.64674 13.7226 2.65007 13.7226C2.65339 13.7226 2.65673 13.7226 2.66008 13.7226C2.66343 13.7226 2.66679 13.7226 2.67017 13.7226C2.67354 13.7226 2.67693 13.7226 2.68033 13.7226C2.68373 13.7226 2.68715 13.7226 2.69057 13.7226C2.694 13.7226 2.69744 13.7226 2.70089 13.7226C2.70434 13.7226 2.70781 13.7226 2.71128 13.7226C2.71476 13.7226 2.71825 13.7226 2.72175 13.7226C2.72526 13.7226 2.72877 13.7226 2.7323 13.7226C2.73582 13.7226 2.73936 13.7226 2.74292 13.7226C2.74647 13.7226 2.75003 13.7226 2.75361 13.7226C2.75719 13.7226 2.76078 13.7226 2.76438 13.7226C2.76798 13.7226 2.7716 13.7226 2.77522 13.7226C2.77885 13.7226 2.78249 13.7226 2.78614 13.7226C2.78979 13.7226 2.79345 13.7226 2.79713 13.7226C2.80081 13.7226 2.80449 13.7226 2.80819 13.7226C2.81189 13.7226 2.8156 13.7226 2.81933 13.7226C2.82305 13.7226 2.82679 13.7226 2.83054 13.7226C2.83429 13.7226 2.83805 13.7226 2.84182 13.7226C2.84559 13.7226 2.84937 13.7226 2.85317 13.7226C2.85697 13.7226 2.86077 13.7226 2.86459 13.7226C2.86841 13.7226 2.87225 13.7226 2.87609 13.7226C2.87993 13.7226 2.88379 13.7226 2.88766 13.7226C2.89152 13.7226 2.8954 13.7226 2.89929 13.7226C2.90318 13.7226 2.90708 13.7226 2.911 13.7226C2.91491 13.7226 2.91884 13.7226 2.92278 13.7226C2.92671 13.7226 2.93066 13.7226 2.93462 13.7226C2.93858 13.7226 2.94255 13.7226 2.94654 13.7226C2.95052 13.7226 2.95452 13.7226 2.95852 13.7226C2.96253 13.7226 2.96655 13.7226 2.97058 13.7226C2.97461 13.7226 2.97865 13.7226 2.9827 13.7226C2.98675 13.7226 2.99081 13.7226 2.99489 13.7226C2.99896 13.7226 3.00305 13.7226 3.00715 13.7226C3.01124 13.7226 3.01535 13.7226 3.01947 13.7226C3.02359 13.7226 3.02772 13.7226 3.03186 13.7226C3.036 13.7226 3.04016 13.7226 3.04432 13.7226C3.04849 13.7226 3.05266 13.7226 3.05685 13.7226C3.06103 13.7226 3.06523 13.7226 3.06944 13.7226C3.07365 13.7226 3.07787 13.7226 3.0821 13.7226C3.08633 13.7226 3.09057 13.7226 3.09482 13.7226C3.09907 13.7226 3.10333 13.7226 3.10761 13.7226C3.11188 13.7226 3.11616 13.7226 3.12046 13.7226C3.12475 13.7226 3.12906 13.7226 3.13338 13.7226C3.13769 13.7226 3.14202 13.7226 3.14636 13.7226C3.1507 13.7226 3.15505 13.7226 3.1594 13.7226C3.16376 13.7226 3.16813 13.7226 3.17251 13.7226C3.17689 13.7226 3.18129 13.7226 3.18569 13.7226C3.19009 13.7226 3.1945 13.7226 3.19892 13.7226C3.20335 13.7226 3.20778 13.7226 3.21222 13.7226C3.21666 13.7226 3.22112 13.7226 3.22558 13.7226C3.23005 13.7226 3.23452 13.7226 3.239 13.7226C3.24349 13.7226 3.24798 13.7226 3.25249 13.7226C3.25699 13.7226 3.26151 13.7226 3.26604 13.7226C3.27056 13.7226 3.2751 13.7226 3.27964 13.7226C3.28419 13.7226 3.28874 13.7226 3.29331 13.7226C3.29788 13.7226 3.30245 13.7226 3.30704 13.7226C3.31162 13.7226 3.31622 13.7226 3.32083 13.7226C3.32543 13.7226 3.33005 13.7226 3.33467 13.7226C3.3393 13.7226 3.34394 13.7226 3.34858 13.7226C3.35323 13.7226 3.35788 13.7226 3.36255 13.7226C3.36722 13.7226 3.37189 13.7226 3.37658 13.7226C3.38126 13.7226 3.38596 13.7226 3.39066 13.7226C3.39536 13.7226 3.40008 13.7226 3.4048 13.7226C3.40953 13.7226 3.41426 13.7226 3.419 13.7226C3.42375 13.7226 3.4285 13.7226 3.43326 13.7226C3.43802 13.7226 3.4428 13.7226 3.44758 13.7226C3.45236 13.7226 3.45715 13.7226 3.46195 13.7226C3.46675 13.7226 3.47156 13.7226 3.47638 13.7226C3.4812 13.7226 3.48603 13.7226 3.49086 13.7226C3.4957 13.7226 3.50055 13.7226 3.50541 13.7226C3.51026 13.7226 3.51513 13.7226 3.52 13.7226C3.52488 13.7226 3.52976 13.7226 3.53466 13.7226C3.53955 13.7226 3.54445 13.7226 3.54936 13.7226C3.55428 13.7226 3.5592 13.7226 3.56413 13.7226C3.56906 13.7226 3.574 13.7226 3.57894 13.7226C3.58389 13.7226 3.58885 13.7226 3.59381 13.7226C3.59878 13.7226 3.60376 13.7226 3.60874 13.7226C3.61372 13.7226 3.61872 13.7226 3.62372 13.7226C3.62872 13.7226 3.63373 13.7226 3.63875 13.7226C3.64377 13.7226 3.6488 13.7226 3.65383 13.7226C3.65887 13.7226 3.66392 13.7226 3.66897 13.7226C3.67403 13.7226 3.67909 13.7226 3.68416 13.7226C3.68923 13.7226 3.69431 13.7226 3.6994 13.7226C3.70449 13.7226 3.70959 13.7226 3.7147 13.7226C3.7198 13.7226 3.72492 13.7226 3.73004 13.7226C3.73516 13.7226 3.74029 13.7226 3.74543 13.7226C3.75058 13.7226 3.75572 13.7226 3.76088 13.7226C3.76604 13.7226 3.7712 13.7226 3.77638 13.7226C3.78155 13.7226 3.78673 13.7226 3.79192 13.7226C3.79711 13.7226 3.80231 13.7226 3.80752 13.7226C3.81273 13.7226 3.81794 13.7226 3.82316 13.7226C3.82839 13.7226 3.83362 13.7226 3.83886 13.7226C3.8441 13.7226 3.84935 13.7226 3.8546 13.7226C3.85986 13.7226 3.86512 13.7226 3.87039 13.7226C3.87567 13.7226 3.88095 13.7226 3.88623 13.7226C3.89152 13.7226 3.89682 13.7226 3.90212 13.7226C3.90743 13.7226 3.91274 13.7226 3.91806 13.7226C3.92338 13.7226 3.9287 13.7226 3.93404 13.7226C3.93937 13.7226 3.94472 13.7226 3.95007 13.7226C3.95542 13.7226 3.96078 13.7226 3.96614 13.7226C3.97151 13.7226 3.97688 13.7226 3.98227 13.7226C3.98765 13.7226 3.99304 13.7226 3.99843 13.7226C4.00383 13.7226 4.00924 13.7226 4.01465 13.7226C4.02006 13.7226 4.02548 13.7226 4.03091 13.7226C4.03633 13.7226 4.04177 13.7226 4.04721 13.7226C4.05265 13.7226 4.0581 13.7226 4.06356 13.7226C4.06902 13.7226 4.07448 13.7226 4.07995 13.7226C4.08542 13.7226 4.0909 13.7226 4.09639 13.7226C4.10187 13.7226 4.10737 13.7226 4.11287 13.7226C4.11837 13.7226 4.12388 13.7226 4.12939 13.7226C4.13491 13.7226 4.14043 13.7226 4.14596 13.7226C4.15149 13.7226 4.15703 13.7226 4.16257 13.7226C4.16811 13.7226 4.17366 13.7226 4.17922 13.7226C4.18478 13.7226 4.19034 13.7226 4.19592 13.7226C4.20149 13.7226 4.20707 13.7226 4.21265 13.7226C4.21824 13.7226 4.22383 13.7226 4.22943 13.7226C4.23503 13.7226 4.24064 13.7226 4.24625 13.7226C4.25186 13.7226 4.25748 13.7226 4.26311 13.7226C4.26874 13.7226 4.27437 13.7226 4.28001 13.7226C4.28565 13.7226 4.2913 13.7226 4.29695 13.7226C4.3026 13.7226 4.30826 13.7226 4.31393 13.7226C4.3196 13.7226 4.32527 13.7226 4.33095 13.7226C4.33663 13.7226 4.34232 13.7226 4.34801 13.7226C4.3537 13.7226 4.3594 13.7226 4.36511 13.7226C4.37081 13.7226 4.37653 13.7226 4.38224 13.7226C4.38796 13.7226 4.39369 13.7226 4.39942 13.7226C4.40515 13.7226 4.41089 13.7226 4.41663 13.7226C4.42238 13.7226 4.42813 13.7226 4.43388 13.7226C4.43964 13.7226 4.4454 13.7226 4.45117 13.7226C4.45694 13.7226 4.46272 13.7226 4.4685 13.7226C4.47428 13.7226 4.48007 13.7226 4.48586 13.7226C4.49165 13.7226 4.49745 13.7226 4.50326 13.7226C4.50906 13.7226 4.51488 13.7226 4.52069 13.7226C4.52651 13.7226 4.53233 13.7226 4.53816 13.7226C4.54399 13.7226 4.54983 13.7226 4.55567 13.7226C4.56151 13.7226 4.56736 13.7226 4.57321 13.7226C4.57906 13.7226 4.58492 13.7226 4.59079 13.7226C4.59665 13.7226 4.60252 13.7226 4.6084 13.7226C4.61427 13.7226 4.62016 13.7226 4.62604 13.7226C4.63193 13.7226 4.63782 13.7226 4.64372 13.7226C4.64962 13.7226 4.65552 13.7226 4.66143 13.7226C4.66734 13.7226 4.67326 13.7226 4.67918 13.7226C4.6851 13.7226 4.69103 13.7226 4.69696 13.7226C4.70289 13.7226 4.70883 13.7226 4.71477 13.7226C4.72071 13.7226 4.72666 13.7226 4.73261 13.7226C4.73857 13.7226 4.74452 13.7226 4.75049 13.7226C4.75645 13.7226 4.76242 13.7226 4.7684 13.7226C4.77437 13.7226 4.78035 13.7226 4.78633 13.7226C4.79232 13.7226 4.79831 13.7226 4.8043 13.7226C4.8103 13.7226 4.8163 13.7226 4.8223 13.7226C4.82831 13.7226 4.83432 13.7226 4.84034 13.7226C4.84635 13.7226 4.85237 13.7226 4.8584 13.7226C4.86442 13.7226 4.87045 13.7226 4.87649 13.7226C4.88252 13.7226 4.88856 13.7226 4.89461 13.7226C4.90065 13.7226 4.9067 13.7226 4.91276 13.7226C4.91881 13.7226 4.92487 13.7226 4.93094 13.7226C4.937 13.7226 4.94307 13.7226 4.94914 13.7226C4.95522 13.7226 4.96129 13.7226 4.96738 13.7226C4.97346 13.7226 4.97955 13.7226 4.98564 13.7226C4.99173 13.7226 4.99783 13.7226 5.00393 13.7226C5.01003 13.7226 5.01614 13.7226 5.02225 13.7226C5.02836 13.7226 5.03447 13.7226 5.04059 13.7226C5.04671 13.7226 5.05284 13.7226 5.05897 13.7226C5.06509 13.7226 5.07123 13.7226 5.07736 13.7226C5.0835 13.7226 5.08964 13.7226 5.09579 13.7226C5.10193 13.7226 5.10808 13.7226 5.11424 13.7226C5.12039 13.7226 5.12655 13.7226 5.13271 13.7226C5.13887 13.7226 5.14504 13.7226 5.15121 13.7226C5.15738 13.7226 5.16356 13.7226 5.16974 13.7226C5.17591 13.7226 5.1821 13.7226 5.18828 13.7226C5.19447 13.7226 5.20066 13.7226 5.20686 13.7226C5.21305 13.7226 5.21925 13.7226 5.22545 13.7226C5.23166 13.7226 5.23786 13.7226 5.24408 13.7226C5.25029 13.7226 5.2565 13.7226 5.26272 13.7226C5.26894 13.7226 5.27516 13.7226 5.28139 13.7226C5.28761 13.7226 5.29384 13.7226 5.30007 13.7226C5.30631 13.7226 5.31254 13.7226 5.31879 13.7226C5.32503 13.7226 5.33127 13.7226 5.33752 13.7226C5.34377 13.7226 5.35002 13.7226 5.35627 13.7226C5.36253 13.7226 5.36879 13.7226 5.37505 13.7226C5.38131 13.7226 5.38758 13.7226 5.39385 13.7226C5.40012 13.7226 5.40639 13.7226 5.41266 13.7226C5.41894 13.7226 5.42522 13.7226 5.4315 13.7226C5.43778 13.7226 5.44407 13.7226 5.45036 13.7226C5.45665 13.7226 5.46294 13.7226 5.46924 13.7226C5.47553 13.7226 5.48183 13.7226 5.48813 13.7226C5.49444 13.7226 5.50074 13.7226 5.50705 13.7226C5.51336 13.7226 5.51967 13.7226 5.52598 13.7226C5.5323 13.7226 5.53862 13.7226 5.54494 13.7226C5.55126 13.7226 5.55758 13.7226 5.56391 13.7226C5.57024 13.7226 5.57657 13.7226 5.5829 13.7226C5.58923 13.7226 5.59557 13.7226 5.6019 13.7226C5.60824 13.7226 5.61458 13.7226 5.62093 13.7226C5.62727 13.7226 5.63362 13.7226 5.63997 13.7226C5.64632 13.7226 5.65267 13.7226 5.65903 13.7226C5.66538 13.7226 5.67174 13.7226 5.6781 13.7226C5.68446 13.7226 5.69082 13.7226 5.69719 13.7226C5.70355 13.7226 5.70992 13.7226 5.71629 13.7226C5.72266 13.7226 5.72904 13.7226 5.73541 13.7226C5.74179 13.7226 5.74817 13.7226 5.75455 13.7226C5.76093 13.7226 5.76731 13.7226 5.7737 13.7226C5.78008 13.7226 5.78647 13.7226 5.79286 13.7226C5.79925 13.7226 5.80564 13.7226 5.81204 13.7226C5.81843 13.7226 5.82483 13.7226 5.83123 13.7226C5.83763 13.7226 5.84403 13.7226 5.85043 13.7226C5.85684 13.7226 5.86324 13.7226 5.86965 13.7226C5.87606 13.7226 5.88247 13.7226 5.88888 13.7226C5.8953 13.7226 5.90171 13.7226 5.90813 13.7226C5.91454 13.7226 5.92096 13.7226 5.92738 13.7226C5.9338 13.7226 5.94022 13.7226 5.94665 13.7226C5.95307 13.7226 5.9595 13.7226 5.96593 13.7226C5.97235 13.7226 5.97878 13.7226 5.98522 13.7226C5.99165 13.7226 5.99808 13.7226 6.00452 13.7226C6.01095 13.7226 6.01739 13.7226 6.02383 13.7226C6.03027 13.7226 6.03671 13.7226 6.04315 13.7226C6.04959 13.7226 6.05603 13.7226 6.06248 13.7226C6.06892 13.7226 6.07537 13.7226 6.08182 13.7226C6.08827 13.7226 6.09472 13.7226 6.10117 13.7226C6.10762 13.7226 6.11407 13.7226 6.12053 13.7226C6.12698 13.7226 6.13344 13.7226 6.13989 13.7226C6.14635 13.7226 6.15281 13.7226 6.15927 13.7226C6.16573 13.7226 6.17219 13.7226 6.17865 13.7226C6.18512 13.7226 6.19158 13.7226 6.19805 13.7226C6.20451 13.7226 6.21098 13.7226 6.21744 13.7226C6.22391 13.7226 6.23038 13.7226 6.23685 13.7226C6.24332 13.7226 6.24979 13.7226 6.25626 13.7226C6.26273 13.7226 6.26921 13.7226 6.27568 13.7226C6.28216 13.7226 6.28863 13.7226 6.29511 13.7226C6.30158 13.7226 6.30806 13.7226 6.31454 13.7226C6.32101 13.7226 6.32749 13.7226 6.33397 13.7226C6.34045 13.7226 6.34693 13.7226 6.35341 13.7226C6.3599 13.7226 6.36638 13.7226 6.37286 13.7226C6.37934 13.7226 6.38583 13.7226 6.39231 13.7226C6.39879 13.7226 6.40528 13.7226 6.41177 13.7226C6.41825 13.7226 6.42474 13.7226 6.43122 13.7226C6.43771 13.7226 6.4442 13.7226 6.45069 13.7226C6.45717 13.7226 6.46366 13.7226 6.47015 13.7226C6.47664 13.7226 6.48313 13.7226 6.48962 13.7226C6.49611 13.7226 6.5026 13.7226 6.50909 13.7226C6.51558 13.7226 6.52207 13.7226 6.52856 13.7226C6.53506 13.7226 6.54155 13.7226 6.54804 13.7226C6.55453 13.7226 6.56102 13.7226 6.56752 13.7226C6.57401 13.7226 6.5805 13.7226 6.587 13.7226C6.59349 13.7226 6.59998 13.7226 6.60647 13.7226C6.61297 13.7226 6.61946 13.7226 6.62595 13.7226C6.63245 13.7226 6.63894 13.7226 6.64543 13.7226C6.65193 13.7226 6.65842 13.7226 6.66492 13.7226C6.67141 13.7226 6.6779 13.7226 6.6844 13.7226C6.69089 13.7226 6.69738 13.7226 6.70388 13.7226C6.71037 13.7226 6.71686 13.7226 6.72335 13.7226C6.72985 13.7226 6.73634 13.7226 6.74283 13.7226C6.74932 13.7226 6.75582 13.7226 6.76231 13.7226C6.7688 13.7226 6.77529 13.7226 6.78178 13.7226C6.78827 13.7226 6.79476 13.7226 6.80126 13.7226C6.80775 13.7226 6.81424 13.7226 6.82072 13.7226C6.82721 13.7226 6.8337 13.7226 6.84019 13.7226C6.84668 13.7226 6.85317 13.7226 6.85966 13.7226C6.86614 13.7226 6.87263 13.7226 6.87912 13.7226C6.8856 13.7226 6.89209 13.7226 6.89857 13.7226C6.90506 13.7226 6.91154 13.7226 6.91803 13.7226C6.92451 13.7226 6.93099 13.7226 6.93748 13.7226C6.94396 13.7226 6.95044 13.7226 6.95692 13.7226C6.9634 13.7226 6.96988 13.7226 6.97636 13.7226C6.98284 13.7226 6.98931 13.7226 6.99579 13.7226C7.00227 13.7226 7.00874 13.7226 7.01522 13.7226C7.02169 13.7226 7.02817 13.7226 7.03464 13.7226C7.04111 13.7226 7.04759 13.7226 7.05406 13.7226C7.06053 13.7226 7.067 13.7226 7.07347 13.7226C7.07994 13.7226 7.0864 13.7226 7.09287 13.7226C7.09934 13.7226 7.1058 13.7226 7.11226 13.7226C7.11873 13.7226 7.12519 13.7226 7.13165 13.7226C7.13811 13.7226 7.14457 13.7226 7.15103 13.7226C7.15749 13.7226 7.16395 13.7226 7.1704 13.7226C7.17686 13.7226 7.18331 13.7226 7.18977 13.7226C7.19622 13.7226 7.20267 13.7226 7.20912 13.7226C7.21557 13.7226 7.22202 13.7226 7.22847 13.7226C7.23491 13.7226 7.24136 13.7226 7.2478 13.7226C7.25425 13.7226 7.26069 13.7226 7.26713 13.7226C7.27357 13.7226 7.28001 13.7226 7.28645 13.7226C7.29288 13.7226 7.29932 13.7226 7.30575 13.7226C7.31219 13.7226 7.31862 13.7226 7.32505 13.7226C7.33148 13.7226 7.33791 13.7226 7.34433 13.7226C7.35076 13.7226 7.35718 13.7226 7.3636 13.7226C7.37003 13.7226 7.37645 13.7226 7.38287 13.7226C7.38928 13.7226 7.3957 13.7226 7.40212 13.7226C7.40853 13.7226 7.41494 13.7226 7.42135 13.7226C7.42776 13.7226 7.43417 13.7226 7.44058 13.7226C7.44698 13.7226 7.45339 13.7226 7.45979 13.7226C7.46619 13.7226 7.47259 13.7226 7.47899 13.7226C7.48538 13.7226 7.49178 13.7226 7.49817 13.7226C7.50457 13.7226 7.51096 13.7226 7.51734 13.7226C7.52373 13.7226 7.53012 13.7226 7.5365 13.7226C7.54288 13.7226 7.54927 13.7226 7.55564 13.7226C7.56202 13.7226 7.5684 13.7226 7.57477 13.7226C7.58115 13.7226 7.58752 13.7226 7.59388 13.7226C7.60025 13.7226 7.60662 13.7226 7.61298 13.7226C7.61935 13.7226 7.62571 13.7226 7.63206 13.7226C7.63842 13.7226 7.64478 13.7226 7.65113 13.7226C7.65748 13.7226 7.66383 13.7226 7.67018 13.7226C7.67653 13.7226 7.68287 13.7226 7.68921 13.7226C7.69555 13.7226 7.70189 13.7226 7.70823 13.7226C7.71456 13.7226 7.7209 13.7226 7.72723 13.7226C7.73356 13.7226 7.73988 13.7226 7.74621 13.7226C7.75253 13.7226 7.75885 13.7226 7.76517 13.7226C7.77149 13.7226 7.7778 13.7226 7.78411 13.7226C7.79043 13.7226 7.79673 13.7226 7.80304 13.7226C7.80935 13.7226 7.81565 13.7226 7.82195 13.7226C7.82825 13.7226 7.83454 13.7226 7.84083 13.7226C7.84713 13.7226 7.85342 13.7226 7.8597 13.7226C7.86599 13.7226 7.87227 13.7226 7.87855 13.7226C7.88483 13.7226 7.89111 13.7226 7.89738 13.7226C7.90365 13.7226 7.90992 13.7226 7.91619 13.7226C7.92245 13.7226 7.92872 13.7226 7.93497 13.7226C7.94123 13.7226 7.94749 13.7226 7.95374 13.7226C7.95999 13.7226 7.96624 13.7226 7.97249 13.7226C7.97873 13.7226 7.98497 13.7226 7.99121 13.7226C7.99745 13.7226 8.00368 13.7226 8.00991 13.7226C8.01614 13.7226 8.02237 13.7226 8.02859 13.7226C8.03481 13.7226 8.04103 13.7226 8.04724 13.7226C8.05346 13.7226 8.05967 13.7226 8.06588 13.7226C8.07208 13.7226 8.07829 13.7226 8.08449 13.7226C8.09069 13.7226 8.09688 13.7226 8.10307 13.7226C8.10926 13.7226 8.11545 13.7226 8.12163 13.7226C8.12782 13.7226 8.134 13.7226 8.14017 13.7226C8.14635 13.7226 8.15252 13.7226 8.15868 13.7226C8.16485 13.7226 8.17101 13.7226 8.17717 13.7226C8.18333 13.7226 8.18949 13.7226 8.19564 13.7226C8.20179 13.7226 8.20793 13.7226 8.21407 13.7226C8.22021 13.7226 8.22635 13.7226 8.23249 13.7226C8.23862 13.7226 8.24475 13.7226 8.25087 13.7226C8.25699 13.7226 8.26311 13.7226 8.26923 13.7226C8.27534 13.7226 8.28146 13.7226 8.28756 13.7226C8.29367 13.7226 8.29977 13.7226 8.30587 13.7226C8.31196 13.7226 8.31806 13.7226 8.32414 13.7226C8.33023 13.7226 8.33632 13.7226 8.34239 13.7226C8.34847 13.7226 8.35455 13.7226 8.36062 13.7226C8.36669 13.7226 8.37275 13.7226 8.37881 13.7226C8.38487 13.7226 8.39092 13.7226 8.39698 13.7226C8.40303 13.7226 8.40907 13.7226 8.41511 13.7226C8.42115 13.7226 8.42719 13.7226 8.43322 13.7226C8.43925 13.7226 8.44527 13.7226 8.45129 13.7226C8.45732 13.7226 8.46333 13.7226 8.46934 13.7226C8.47535 13.7226 8.48136 13.7226 8.48736 13.7226C8.49336 13.7226 8.49935 13.7226 8.50534 13.7226C8.51133 13.7226 8.51732 13.7226 8.5233 13.7226C8.52928 13.7226 8.53525 13.7226 8.54122 13.7226C8.54719 13.7226 8.55316 13.7226 8.55912 13.7226C8.56508 13.7226 8.57103 13.7226 8.57698 13.7226C8.58293 13.7226 8.58887 13.7226 8.59481 13.7226C8.60074 13.7226 8.60668 13.7226 8.6126 13.7226C8.61853 13.7226 8.62445 13.7226 8.63036 13.7226C8.63628 13.7226 8.64219 13.7226 8.6481 13.7226C8.654 13.7226 8.6599 13.7226 8.66579 13.7226C8.67168 13.7226 8.67757 13.7226 8.68345 13.7226C8.68934 13.7226 8.69521 13.7226 8.70108 13.7226C8.70695 13.7226 8.71282 13.7226 8.71868 13.7226C8.72454 13.7226 8.73039 13.7226 8.73624 13.7226C8.74209 13.7226 8.74793 13.7226 8.75376 13.7226C8.7596 13.7226 8.76543 13.7226 8.77125 13.7226C8.77708 13.7226 8.78289 13.7226 8.78871 13.7226C8.79452 13.7226 8.80032 13.7226 8.80612 13.7226C8.81192 13.7226 8.81772 13.7226 8.82351 13.7226C8.82929 13.7226 8.83508 13.7226 8.84085 13.7226C8.84663 13.7226 8.8524 13.7226 8.85816 13.7226C8.86392 13.7226 8.86968 13.7226 8.87543 13.7226C8.88118 13.7226 8.88693 13.7226 8.89266 13.7226C8.8984 13.7226 8.90413 13.7226 8.90986 13.7226C8.91558 13.7226 8.9213 13.7226 8.92702 13.7226C8.93273 13.7226 8.93844 13.7226 8.94414 13.7226C8.94983 13.7226 8.95553 13.7226 8.96122 13.7226C8.9669 13.7226 8.97258 13.7226 8.97826 13.7226C8.98393 13.7226 8.9896 13.7226 8.99526 13.7226C9.00092 13.7226 9.00657 13.7226 9.01222 13.7226C9.01787 13.7226 9.02351 13.7226 9.02914 13.7226C9.03477 13.7226 9.0404 13.7226 9.04602 13.7226C9.05164 13.7226 9.05726 13.7226 9.06286 13.7226C9.06847 13.7226 9.07407 13.7226 9.07966 13.7226C9.08526 13.7226 9.09084 13.7226 9.09642 13.7226C9.102 13.7226 9.10757 13.7226 9.11314 13.7226C9.1187 13.7226 9.12426 13.7226 9.12981 13.7226C9.13536 13.7226 9.14091 13.7226 9.14645 13.7226C9.15198 13.7226 9.15751 13.7226 9.16304 13.7226C9.16856 13.7226 9.17407 13.7226 9.17958 13.7226C9.18509 13.7226 9.19059 13.7226 9.19609 13.7226C9.20158 13.7226 9.20707 13.7226 9.21255 13.7226C9.21803 13.7226 9.2235 13.7226 9.22896 13.7226C9.23443 13.7226 9.23988 13.7226 9.24533 13.7226C9.25078 13.7226 9.25623 13.7226 9.26166 13.7226C9.2671 13.7226 9.27252 13.7226 9.27794 13.7226C9.28337 13.7226 9.28878 13.7226 9.29418 13.7226C9.29959 13.7226 9.30499 13.7226 9.31038 13.7226C9.31576 13.7226 9.32115 13.7226 9.32652 13.7226C9.3319 13.7226 9.33726 13.7226 9.34262 13.7226C9.34798 13.7226 9.35333 13.7226 9.35868 13.7226C9.36402 13.7226 9.36936 13.7226 9.37468 13.7226C9.38001 13.7226 9.38533 13.7226 9.39064 13.7226C9.39596 13.7226 9.40126 13.7226 9.40656 13.7226C9.41185 13.7226 9.41714 13.7226 9.42242 13.7226C9.4277 13.7226 9.43297 13.7226 9.43824 13.7226C9.4435 13.7226 9.44876 13.7226 9.45401 13.7226C9.45926 13.7226 9.4645 13.7226 9.46973 13.7226C9.47496 13.7226 9.48018 13.7226 9.4854 13.7226C9.49062 13.7226 9.49582 13.7226 9.50102 13.7226C9.50622 13.7226 9.51141 13.7226 9.5166 13.7226C9.52178 13.7226 9.52695 13.7226 9.53212 13.7226C9.53728 13.7226 9.54244 13.7226 9.54759 13.7226C9.55274 13.7226 9.55788 13.7226 9.56301 13.7226C9.56815 13.7226 9.57327 13.7226 9.57839 13.7226C9.5835 13.7226 9.58861 13.7226 9.59371 13.7226C9.5988 13.7226 9.60389 13.7226 9.60897 13.7226C9.61406 13.7226 9.61913 13.7226 9.62419 13.7226C9.62926 13.7226 9.63431 13.7226 9.63936 13.7226C9.6444 13.7226 9.64944 13.7226 9.65447 13.7226C9.6595 13.7226 9.66452 13.7226 9.66953 13.7226C9.67454 13.7226 9.67954 13.7226 9.68454 13.7226C9.68953 13.7226 9.69451 13.7226 9.69949 13.7226C9.70446 13.7226 9.70943 13.7226 9.71439 13.7226C9.71935 13.7226 9.7243 13.7226 9.72924 13.7226C9.73418 13.7226 9.73911 13.7226 9.74403 13.7226C9.74895 13.7226 9.75386 13.7226 9.75876 13.7226C9.76367 13.7226 9.76856 13.7226 9.77345 13.7226C9.77833 13.7226 9.78321 13.7226 9.78807 13.7226C9.79294 13.7226 9.7978 13.7226 9.80264 13.7226C9.80749 13.7226 9.81233 13.7226 9.81716 13.7226C9.82199 13.7226 9.82681 13.7226 9.83162 13.7226C9.83643 13.7226 9.84123 13.7226 9.84602 13.7226C9.85081 13.7226 9.8556 13.7226 9.86037 13.7226C9.86514 13.7226 9.8699 13.7226 9.87466 13.7226C9.87941 13.7226 9.88415 13.7226 9.88889 13.7226V12.9226C9.88415 12.9226 9.87941 12.9226 9.87466 12.9226C9.8699 12.9226 9.86514 12.9226 9.86037 12.9226C9.8556 12.9226 9.85081 12.9226 9.84602 12.9226C9.84123 12.9226 9.83643 12.9226 9.83162 12.9226C9.82681 12.9226 9.82199 12.9226 9.81716 12.9226C9.81233 12.9226 9.80749 12.9226 9.80264 12.9226C9.7978 12.9226 9.79294 12.9226 9.78807 12.9226C9.78321 12.9226 9.77833 12.9226 9.77345 12.9226C9.76856 12.9226 9.76367 12.9226 9.75876 12.9226C9.75386 12.9226 9.74895 12.9226 9.74403 12.9226C9.73911 12.9226 9.73418 12.9226 9.72924 12.9226C9.7243 12.9226 9.71935 12.9226 9.71439 12.9226C9.70943 12.9226 9.70446 12.9226 9.69949 12.9226C9.69451 12.9226 9.68953 12.9226 9.68454 12.9226C9.67954 12.9226 9.67454 12.9226 9.66953 12.9226C9.66452 12.9226 9.6595 12.9226 9.65447 12.9226C9.64944 12.9226 9.6444 12.9226 9.63936 12.9226C9.63431 12.9226 9.62926 12.9226 9.62419 12.9226C9.61913 12.9226 9.61406 12.9226 9.60897 12.9226C9.60389 12.9226 9.5988 12.9226 9.59371 12.9226C9.58861 12.9226 9.5835 12.9226 9.57839 12.9226C9.57327 12.9226 9.56815 12.9226 9.56301 12.9226C9.55788 12.9226 9.55274 12.9226 9.54759 12.9226C9.54244 12.9226 9.53728 12.9226 9.53212 12.9226C9.52695 12.9226 9.52178 12.9226 9.5166 12.9226C9.51141 12.9226 9.50622 12.9226 9.50102 12.9226C9.49582 12.9226 9.49062 12.9226 9.4854 12.9226C9.48018 12.9226 9.47496 12.9226 9.46973 12.9226C9.4645 12.9226 9.45926 12.9226 9.45401 12.9226C9.44876 12.9226 9.4435 12.9226 9.43824 12.9226C9.43297 12.9226 9.4277 12.9226 9.42242 12.9226C9.41714 12.9226 9.41185 12.9226 9.40656 12.9226C9.40126 12.9226 9.39596 12.9226 9.39064 12.9226C9.38533 12.9226 9.38001 12.9226 9.37468 12.9226C9.36936 12.9226 9.36402 12.9226 9.35868 12.9226C9.35333 12.9226 9.34798 12.9226 9.34262 12.9226C9.33726 12.9226 9.3319 12.9226 9.32652 12.9226C9.32115 12.9226 9.31576 12.9226 9.31038 12.9226C9.30499 12.9226 9.29959 12.9226 9.29418 12.9226C9.28878 12.9226 9.28337 12.9226 9.27794 12.9226C9.27252 12.9226 9.2671 12.9226 9.26166 12.9226C9.25623 12.9226 9.25078 12.9226 9.24533 12.9226C9.23988 12.9226 9.23443 12.9226 9.22896 12.9226C9.2235 12.9226 9.21803 12.9226 9.21255 12.9226C9.20707 12.9226 9.20158 12.9226 9.19609 12.9226C9.19059 12.9226 9.18509 12.9226 9.17958 12.9226C9.17407 12.9226 9.16856 12.9226 9.16304 12.9226C9.15751 12.9226 9.15198 12.9226 9.14645 12.9226C9.14091 12.9226 9.13536 12.9226 9.12981 12.9226C9.12426 12.9226 9.1187 12.9226 9.11314 12.9226C9.10757 12.9226 9.102 12.9226 9.09642 12.9226C9.09084 12.9226 9.08526 12.9226 9.07966 12.9226C9.07407 12.9226 9.06847 12.9226 9.06286 12.9226C9.05726 12.9226 9.05164 12.9226 9.04602 12.9226C9.0404 12.9226 9.03477 12.9226 9.02914 12.9226C9.02351 12.9226 9.01787 12.9226 9.01222 12.9226C9.00657 12.9226 9.00092 12.9226 8.99526 12.9226C8.9896 12.9226 8.98393 12.9226 8.97826 12.9226C8.97258 12.9226 8.9669 12.9226 8.96122 12.9226C8.95553 12.9226 8.94983 12.9226 8.94414 12.9226C8.93844 12.9226 8.93273 12.9226 8.92702 12.9226C8.9213 12.9226 8.91558 12.9226 8.90986 12.9226C8.90413 12.9226 8.8984 12.9226 8.89266 12.9226C8.88693 12.9226 8.88118 12.9226 8.87543 12.9226C8.86968 12.9226 8.86392 12.9226 8.85816 12.9226C8.8524 12.9226 8.84663 12.9226 8.84085 12.9226C8.83508 12.9226 8.82929 12.9226 8.82351 12.9226C8.81772 12.9226 8.81192 12.9226 8.80612 12.9226C8.80032 12.9226 8.79452 12.9226 8.78871 12.9226C8.78289 12.9226 8.77708 12.9226 8.77125 12.9226C8.76543 12.9226 8.7596 12.9226 8.75376 12.9226C8.74793 12.9226 8.74209 12.9226 8.73624 12.9226C8.73039 12.9226 8.72454 12.9226 8.71868 12.9226C8.71282 12.9226 8.70695 12.9226 8.70108 12.9226C8.69521 12.9226 8.68934 12.9226 8.68345 12.9226C8.67757 12.9226 8.67168 12.9226 8.66579 12.9226C8.6599 12.9226 8.654 12.9226 8.6481 12.9226C8.64219 12.9226 8.63628 12.9226 8.63036 12.9226C8.62445 12.9226 8.61853 12.9226 8.6126 12.9226C8.60668 12.9226 8.60074 12.9226 8.59481 12.9226C8.58887 12.9226 8.58293 12.9226 8.57698 12.9226C8.57103 12.9226 8.56508 12.9226 8.55912 12.9226C8.55316 12.9226 8.54719 12.9226 8.54122 12.9226C8.53525 12.9226 8.52928 12.9226 8.5233 12.9226C8.51732 12.9226 8.51133 12.9226 8.50534 12.9226C8.49935 12.9226 8.49336 12.9226 8.48736 12.9226C8.48136 12.9226 8.47535 12.9226 8.46934 12.9226C8.46333 12.9226 8.45732 12.9226 8.45129 12.9226C8.44527 12.9226 8.43925 12.9226 8.43322 12.9226C8.42719 12.9226 8.42115 12.9226 8.41511 12.9226C8.40907 12.9226 8.40303 12.9226 8.39698 12.9226C8.39092 12.9226 8.38487 12.9226 8.37881 12.9226C8.37275 12.9226 8.36669 12.9226 8.36062 12.9226C8.35455 12.9226 8.34847 12.9226 8.34239 12.9226C8.33632 12.9226 8.33023 12.9226 8.32414 12.9226C8.31806 12.9226 8.31196 12.9226 8.30587 12.9226C8.29977 12.9226 8.29367 12.9226 8.28756 12.9226C8.28146 12.9226 8.27534 12.9226 8.26923 12.9226C8.26311 12.9226 8.25699 12.9226 8.25087 12.9226C8.24475 12.9226 8.23862 12.9226 8.23249 12.9226C8.22635 12.9226 8.22021 12.9226 8.21407 12.9226C8.20793 12.9226 8.20179 12.9226 8.19564 12.9226C8.18949 12.9226 8.18333 12.9226 8.17717 12.9226C8.17101 12.9226 8.16485 12.9226 8.15868 12.9226C8.15252 12.9226 8.14635 12.9226 8.14017 12.9226C8.134 12.9226 8.12782 12.9226 8.12163 12.9226C8.11545 12.9226 8.10926 12.9226 8.10307 12.9226C8.09688 12.9226 8.09069 12.9226 8.08449 12.9226C8.07829 12.9226 8.07208 12.9226 8.06588 12.9226C8.05967 12.9226 8.05346 12.9226 8.04724 12.9226C8.04103 12.9226 8.03481 12.9226 8.02859 12.9226C8.02237 12.9226 8.01614 12.9226 8.00991 12.9226C8.00368 12.9226 7.99745 12.9226 7.99121 12.9226C7.98497 12.9226 7.97873 12.9226 7.97249 12.9226C7.96624 12.9226 7.95999 12.9226 7.95374 12.9226C7.94749 12.9226 7.94123 12.9226 7.93497 12.9226C7.92872 12.9226 7.92245 12.9226 7.91619 12.9226C7.90992 12.9226 7.90365 12.9226 7.89738 12.9226C7.89111 12.9226 7.88483 12.9226 7.87855 12.9226C7.87227 12.9226 7.86599 12.9226 7.8597 12.9226C7.85342 12.9226 7.84713 12.9226 7.84083 12.9226C7.83454 12.9226 7.82825 12.9226 7.82195 12.9226C7.81565 12.9226 7.80935 12.9226 7.80304 12.9226C7.79673 12.9226 7.79043 12.9226 7.78411 12.9226C7.7778 12.9226 7.77149 12.9226 7.76517 12.9226C7.75885 12.9226 7.75253 12.9226 7.74621 12.9226C7.73988 12.9226 7.73356 12.9226 7.72723 12.9226C7.7209 12.9226 7.71456 12.9226 7.70823 12.9226C7.70189 12.9226 7.69555 12.9226 7.68921 12.9226C7.68287 12.9226 7.67653 12.9226 7.67018 12.9226C7.66383 12.9226 7.65748 12.9226 7.65113 12.9226C7.64478 12.9226 7.63842 12.9226 7.63206 12.9226C7.62571 12.9226 7.61935 12.9226 7.61298 12.9226C7.60662 12.9226 7.60025 12.9226 7.59388 12.9226C7.58752 12.9226 7.58115 12.9226 7.57477 12.9226C7.5684 12.9226 7.56202 12.9226 7.55564 12.9226C7.54927 12.9226 7.54288 12.9226 7.5365 12.9226C7.53012 12.9226 7.52373 12.9226 7.51734 12.9226C7.51096 12.9226 7.50457 12.9226 7.49817 12.9226C7.49178 12.9226 7.48538 12.9226 7.47899 12.9226C7.47259 12.9226 7.46619 12.9226 7.45979 12.9226C7.45339 12.9226 7.44698 12.9226 7.44058 12.9226C7.43417 12.9226 7.42776 12.9226 7.42135 12.9226C7.41494 12.9226 7.40853 12.9226 7.40212 12.9226C7.3957 12.9226 7.38928 12.9226 7.38287 12.9226C7.37645 12.9226 7.37003 12.9226 7.3636 12.9226C7.35718 12.9226 7.35076 12.9226 7.34433 12.9226C7.33791 12.9226 7.33148 12.9226 7.32505 12.9226C7.31862 12.9226 7.31219 12.9226 7.30575 12.9226C7.29932 12.9226 7.29288 12.9226 7.28645 12.9226C7.28001 12.9226 7.27357 12.9226 7.26713 12.9226C7.26069 12.9226 7.25425 12.9226 7.2478 12.9226C7.24136 12.9226 7.23491 12.9226 7.22847 12.9226C7.22202 12.9226 7.21557 12.9226 7.20912 12.9226C7.20267 12.9226 7.19622 12.9226 7.18977 12.9226C7.18331 12.9226 7.17686 12.9226 7.1704 12.9226C7.16395 12.9226 7.15749 12.9226 7.15103 12.9226C7.14457 12.9226 7.13811 12.9226 7.13165 12.9226C7.12519 12.9226 7.11873 12.9226 7.11226 12.9226C7.1058 12.9226 7.09934 12.9226 7.09287 12.9226C7.0864 12.9226 7.07994 12.9226 7.07347 12.9226C7.067 12.9226 7.06053 12.9226 7.05406 12.9226C7.04759 12.9226 7.04111 12.9226 7.03464 12.9226C7.02817 12.9226 7.02169 12.9226 7.01522 12.9226C7.00874 12.9226 7.00227 12.9226 6.99579 12.9226C6.98931 12.9226 6.98284 12.9226 6.97636 12.9226C6.96988 12.9226 6.9634 12.9226 6.95692 12.9226C6.95044 12.9226 6.94396 12.9226 6.93748 12.9226C6.93099 12.9226 6.92451 12.9226 6.91803 12.9226C6.91154 12.9226 6.90506 12.9226 6.89857 12.9226C6.89209 12.9226 6.8856 12.9226 6.87912 12.9226C6.87263 12.9226 6.86614 12.9226 6.85966 12.9226C6.85317 12.9226 6.84668 12.9226 6.84019 12.9226C6.8337 12.9226 6.82721 12.9226 6.82072 12.9226C6.81424 12.9226 6.80775 12.9226 6.80126 12.9226C6.79476 12.9226 6.78827 12.9226 6.78178 12.9226C6.77529 12.9226 6.7688 12.9226 6.76231 12.9226C6.75582 12.9226 6.74932 12.9226 6.74283 12.9226C6.73634 12.9226 6.72985 12.9226 6.72335 12.9226C6.71686 12.9226 6.71037 12.9226 6.70388 12.9226C6.69738 12.9226 6.69089 12.9226 6.6844 12.9226C6.6779 12.9226 6.67141 12.9226 6.66492 12.9226C6.65842 12.9226 6.65193 12.9226 6.64543 12.9226C6.63894 12.9226 6.63245 12.9226 6.62595 12.9226C6.61946 12.9226 6.61297 12.9226 6.60647 12.9226C6.59998 12.9226 6.59349 12.9226 6.587 12.9226C6.5805 12.9226 6.57401 12.9226 6.56752 12.9226C6.56102 12.9226 6.55453 12.9226 6.54804 12.9226C6.54155 12.9226 6.53506 12.9226 6.52856 12.9226C6.52207 12.9226 6.51558 12.9226 6.50909 12.9226C6.5026 12.9226 6.49611 12.9226 6.48962 12.9226C6.48313 12.9226 6.47664 12.9226 6.47015 12.9226C6.46366 12.9226 6.45717 12.9226 6.45069 12.9226C6.4442 12.9226 6.43771 12.9226 6.43122 12.9226C6.42474 12.9226 6.41825 12.9226 6.41177 12.9226C6.40528 12.9226 6.39879 12.9226 6.39231 12.9226C6.38583 12.9226 6.37934 12.9226 6.37286 12.9226C6.36638 12.9226 6.3599 12.9226 6.35341 12.9226C6.34693 12.9226 6.34045 12.9226 6.33397 12.9226C6.32749 12.9226 6.32101 12.9226 6.31454 12.9226C6.30806 12.9226 6.30158 12.9226 6.29511 12.9226C6.28863 12.9226 6.28216 12.9226 6.27568 12.9226C6.26921 12.9226 6.26273 12.9226 6.25626 12.9226C6.24979 12.9226 6.24332 12.9226 6.23685 12.9226C6.23038 12.9226 6.22391 12.9226 6.21744 12.9226C6.21098 12.9226 6.20451 12.9226 6.19805 12.9226C6.19158 12.9226 6.18512 12.9226 6.17865 12.9226C6.17219 12.9226 6.16573 12.9226 6.15927 12.9226C6.15281 12.9226 6.14635 12.9226 6.13989 12.9226C6.13344 12.9226 6.12698 12.9226 6.12053 12.9226C6.11407 12.9226 6.10762 12.9226 6.10117 12.9226C6.09472 12.9226 6.08827 12.9226 6.08182 12.9226C6.07537 12.9226 6.06892 12.9226 6.06248 12.9226C6.05603 12.9226 6.04959 12.9226 6.04315 12.9226C6.03671 12.9226 6.03027 12.9226 6.02383 12.9226C6.01739 12.9226 6.01095 12.9226 6.00452 12.9226C5.99808 12.9226 5.99165 12.9226 5.98522 12.9226C5.97878 12.9226 5.97235 12.9226 5.96593 12.9226C5.9595 12.9226 5.95307 12.9226 5.94665 12.9226C5.94022 12.9226 5.9338 12.9226 5.92738 12.9226C5.92096 12.9226 5.91454 12.9226 5.90813 12.9226C5.90171 12.9226 5.8953 12.9226 5.88888 12.9226C5.88247 12.9226 5.87606 12.9226 5.86965 12.9226C5.86324 12.9226 5.85684 12.9226 5.85043 12.9226C5.84403 12.9226 5.83763 12.9226 5.83123 12.9226C5.82483 12.9226 5.81843 12.9226 5.81204 12.9226C5.80564 12.9226 5.79925 12.9226 5.79286 12.9226C5.78647 12.9226 5.78008 12.9226 5.7737 12.9226C5.76731 12.9226 5.76093 12.9226 5.75455 12.9226C5.74817 12.9226 5.74179 12.9226 5.73541 12.9226C5.72904 12.9226 5.72266 12.9226 5.71629 12.9226C5.70992 12.9226 5.70355 12.9226 5.69719 12.9226C5.69082 12.9226 5.68446 12.9226 5.6781 12.9226C5.67174 12.9226 5.66538 12.9226 5.65903 12.9226C5.65267 12.9226 5.64632 12.9226 5.63997 12.9226C5.63362 12.9226 5.62727 12.9226 5.62093 12.9226C5.61458 12.9226 5.60824 12.9226 5.6019 12.9226C5.59557 12.9226 5.58923 12.9226 5.5829 12.9226C5.57657 12.9226 5.57024 12.9226 5.56391 12.9226C5.55758 12.9226 5.55126 12.9226 5.54494 12.9226C5.53862 12.9226 5.5323 12.9226 5.52598 12.9226C5.51967 12.9226 5.51336 12.9226 5.50705 12.9226C5.50074 12.9226 5.49444 12.9226 5.48813 12.9226C5.48183 12.9226 5.47553 12.9226 5.46924 12.9226C5.46294 12.9226 5.45665 12.9226 5.45036 12.9226C5.44407 12.9226 5.43778 12.9226 5.4315 12.9226C5.42522 12.9226 5.41894 12.9226 5.41266 12.9226C5.40639 12.9226 5.40012 12.9226 5.39385 12.9226C5.38758 12.9226 5.38131 12.9226 5.37505 12.9226C5.36879 12.9226 5.36253 12.9226 5.35627 12.9226C5.35002 12.9226 5.34377 12.9226 5.33752 12.9226C5.33127 12.9226 5.32503 12.9226 5.31879 12.9226C5.31254 12.9226 5.30631 12.9226 5.30007 12.9226C5.29384 12.9226 5.28761 12.9226 5.28139 12.9226C5.27516 12.9226 5.26894 12.9226 5.26272 12.9226C5.2565 12.9226 5.25029 12.9226 5.24408 12.9226C5.23786 12.9226 5.23166 12.9226 5.22545 12.9226C5.21925 12.9226 5.21305 12.9226 5.20686 12.9226C5.20066 12.9226 5.19447 12.9226 5.18828 12.9226C5.1821 12.9226 5.17591 12.9226 5.16974 12.9226C5.16356 12.9226 5.15738 12.9226 5.15121 12.9226C5.14504 12.9226 5.13887 12.9226 5.13271 12.9226C5.12655 12.9226 5.12039 12.9226 5.11424 12.9226C5.10808 12.9226 5.10193 12.9226 5.09579 12.9226C5.08964 12.9226 5.0835 12.9226 5.07736 12.9226C5.07123 12.9226 5.06509 12.9226 5.05897 12.9226C5.05284 12.9226 5.04671 12.9226 5.04059 12.9226C5.03447 12.9226 5.02836 12.9226 5.02225 12.9226C5.01614 12.9226 5.01003 12.9226 5.00393 12.9226C4.99783 12.9226 4.99173 12.9226 4.98564 12.9226C4.97955 12.9226 4.97346 12.9226 4.96738 12.9226C4.96129 12.9226 4.95522 12.9226 4.94914 12.9226C4.94307 12.9226 4.937 12.9226 4.93094 12.9226C4.92487 12.9226 4.91881 12.9226 4.91276 12.9226C4.9067 12.9226 4.90065 12.9226 4.89461 12.9226C4.88856 12.9226 4.88252 12.9226 4.87649 12.9226C4.87045 12.9226 4.86442 12.9226 4.8584 12.9226C4.85237 12.9226 4.84635 12.9226 4.84034 12.9226C4.83432 12.9226 4.82831 12.9226 4.8223 12.9226C4.8163 12.9226 4.8103 12.9226 4.8043 12.9226C4.79831 12.9226 4.79232 12.9226 4.78633 12.9226C4.78035 12.9226 4.77437 12.9226 4.7684 12.9226C4.76242 12.9226 4.75645 12.9226 4.75049 12.9226C4.74452 12.9226 4.73857 12.9226 4.73261 12.9226C4.72666 12.9226 4.72071 12.9226 4.71477 12.9226C4.70883 12.9226 4.70289 12.9226 4.69696 12.9226C4.69103 12.9226 4.6851 12.9226 4.67918 12.9226C4.67326 12.9226 4.66734 12.9226 4.66143 12.9226C4.65552 12.9226 4.64962 12.9226 4.64372 12.9226C4.63782 12.9226 4.63193 12.9226 4.62604 12.9226C4.62016 12.9226 4.61427 12.9226 4.6084 12.9226C4.60252 12.9226 4.59665 12.9226 4.59079 12.9226C4.58492 12.9226 4.57906 12.9226 4.57321 12.9226C4.56736 12.9226 4.56151 12.9226 4.55567 12.9226C4.54983 12.9226 4.54399 12.9226 4.53816 12.9226C4.53233 12.9226 4.52651 12.9226 4.52069 12.9226C4.51488 12.9226 4.50906 12.9226 4.50326 12.9226C4.49745 12.9226 4.49165 12.9226 4.48586 12.9226C4.48007 12.9226 4.47428 12.9226 4.4685 12.9226C4.46272 12.9226 4.45694 12.9226 4.45117 12.9226C4.4454 12.9226 4.43964 12.9226 4.43388 12.9226C4.42813 12.9226 4.42238 12.9226 4.41663 12.9226C4.41089 12.9226 4.40515 12.9226 4.39942 12.9226C4.39369 12.9226 4.38796 12.9226 4.38224 12.9226C4.37653 12.9226 4.37081 12.9226 4.36511 12.9226C4.3594 12.9226 4.3537 12.9226 4.34801 12.9226C4.34232 12.9226 4.33663 12.9226 4.33095 12.9226C4.32527 12.9226 4.3196 12.9226 4.31393 12.9226C4.30826 12.9226 4.3026 12.9226 4.29695 12.9226C4.2913 12.9226 4.28565 12.9226 4.28001 12.9226C4.27437 12.9226 4.26874 12.9226 4.26311 12.9226C4.25748 12.9226 4.25186 12.9226 4.24625 12.9226C4.24064 12.9226 4.23503 12.9226 4.22943 12.9226C4.22383 12.9226 4.21824 12.9226 4.21265 12.9226C4.20707 12.9226 4.20149 12.9226 4.19592 12.9226C4.19034 12.9226 4.18478 12.9226 4.17922 12.9226C4.17366 12.9226 4.16811 12.9226 4.16257 12.9226C4.15703 12.9226 4.15149 12.9226 4.14596 12.9226C4.14043 12.9226 4.13491 12.9226 4.12939 12.9226C4.12388 12.9226 4.11837 12.9226 4.11287 12.9226C4.10737 12.9226 4.10187 12.9226 4.09639 12.9226C4.0909 12.9226 4.08542 12.9226 4.07995 12.9226C4.07448 12.9226 4.06902 12.9226 4.06356 12.9226C4.0581 12.9226 4.05265 12.9226 4.04721 12.9226C4.04177 12.9226 4.03633 12.9226 4.03091 12.9226C4.02548 12.9226 4.02006 12.9226 4.01465 12.9226C4.00924 12.9226 4.00383 12.9226 3.99843 12.9226C3.99304 12.9226 3.98765 12.9226 3.98227 12.9226C3.97688 12.9226 3.97151 12.9226 3.96614 12.9226C3.96078 12.9226 3.95542 12.9226 3.95007 12.9226C3.94472 12.9226 3.93937 12.9226 3.93404 12.9226C3.9287 12.9226 3.92338 12.9226 3.91806 12.9226C3.91274 12.9226 3.90743 12.9226 3.90212 12.9226C3.89682 12.9226 3.89152 12.9226 3.88623 12.9226C3.88095 12.9226 3.87567 12.9226 3.87039 12.9226C3.86512 12.9226 3.85986 12.9226 3.8546 12.9226C3.84935 12.9226 3.8441 12.9226 3.83886 12.9226C3.83362 12.9226 3.82839 12.9226 3.82316 12.9226C3.81794 12.9226 3.81273 12.9226 3.80752 12.9226C3.80231 12.9226 3.79711 12.9226 3.79192 12.9226C3.78673 12.9226 3.78155 12.9226 3.77638 12.9226C3.7712 12.9226 3.76604 12.9226 3.76088 12.9226C3.75572 12.9226 3.75058 12.9226 3.74543 12.9226C3.74029 12.9226 3.73516 12.9226 3.73004 12.9226C3.72492 12.9226 3.7198 12.9226 3.7147 12.9226C3.70959 12.9226 3.70449 12.9226 3.6994 12.9226C3.69431 12.9226 3.68923 12.9226 3.68416 12.9226C3.67909 12.9226 3.67403 12.9226 3.66897 12.9226C3.66392 12.9226 3.65887 12.9226 3.65383 12.9226C3.6488 12.9226 3.64377 12.9226 3.63875 12.9226C3.63373 12.9226 3.62872 12.9226 3.62372 12.9226C3.61872 12.9226 3.61372 12.9226 3.60874 12.9226C3.60376 12.9226 3.59878 12.9226 3.59381 12.9226C3.58885 12.9226 3.58389 12.9226 3.57894 12.9226C3.574 12.9226 3.56906 12.9226 3.56413 12.9226C3.5592 12.9226 3.55428 12.9226 3.54936 12.9226C3.54445 12.9226 3.53955 12.9226 3.53466 12.9226C3.52976 12.9226 3.52488 12.9226 3.52 12.9226C3.51513 12.9226 3.51026 12.9226 3.50541 12.9226C3.50055 12.9226 3.4957 12.9226 3.49086 12.9226C3.48603 12.9226 3.4812 12.9226 3.47638 12.9226C3.47156 12.9226 3.46675 12.9226 3.46195 12.9226C3.45715 12.9226 3.45236 12.9226 3.44758 12.9226C3.4428 12.9226 3.43802 12.9226 3.43326 12.9226C3.4285 12.9226 3.42375 12.9226 3.419 12.9226C3.41426 12.9226 3.40953 12.9226 3.4048 12.9226C3.40008 12.9226 3.39536 12.9226 3.39066 12.9226C3.38596 12.9226 3.38126 12.9226 3.37658 12.9226C3.37189 12.9226 3.36722 12.9226 3.36255 12.9226C3.35788 12.9226 3.35323 12.9226 3.34858 12.9226C3.34394 12.9226 3.3393 12.9226 3.33467 12.9226C3.33005 12.9226 3.32543 12.9226 3.32083 12.9226C3.31622 12.9226 3.31162 12.9226 3.30704 12.9226C3.30245 12.9226 3.29788 12.9226 3.29331 12.9226C3.28874 12.9226 3.28419 12.9226 3.27964 12.9226C3.2751 12.9226 3.27056 12.9226 3.26604 12.9226C3.26151 12.9226 3.25699 12.9226 3.25249 12.9226C3.24798 12.9226 3.24349 12.9226 3.239 12.9226C3.23452 12.9226 3.23005 12.9226 3.22558 12.9226C3.22112 12.9226 3.21666 12.9226 3.21222 12.9226C3.20778 12.9226 3.20335 12.9226 3.19892 12.9226C3.1945 12.9226 3.19009 12.9226 3.18569 12.9226C3.18129 12.9226 3.17689 12.9226 3.17251 12.9226C3.16813 12.9226 3.16376 12.9226 3.1594 12.9226C3.15505 12.9226 3.1507 12.9226 3.14636 12.9226C3.14202 12.9226 3.13769 12.9226 3.13338 12.9226C3.12906 12.9226 3.12475 12.9226 3.12046 12.9226C3.11616 12.9226 3.11188 12.9226 3.10761 12.9226C3.10333 12.9226 3.09907 12.9226 3.09482 12.9226C3.09057 12.9226 3.08633 12.9226 3.0821 12.9226C3.07787 12.9226 3.07365 12.9226 3.06944 12.9226C3.06523 12.9226 3.06103 12.9226 3.05685 12.9226C3.05266 12.9226 3.04849 12.9226 3.04432 12.9226C3.04016 12.9226 3.036 12.9226 3.03186 12.9226C3.02772 12.9226 3.02359 12.9226 3.01947 12.9226C3.01535 12.9226 3.01124 12.9226 3.00715 12.9226C3.00305 12.9226 2.99896 12.9226 2.99489 12.9226C2.99081 12.9226 2.98675 12.9226 2.9827 12.9226C2.97865 12.9226 2.97461 12.9226 2.97058 12.9226C2.96655 12.9226 2.96253 12.9226 2.95852 12.9226C2.95452 12.9226 2.95052 12.9226 2.94654 12.9226C2.94255 12.9226 2.93858 12.9226 2.93462 12.9226C2.93066 12.9226 2.92671 12.9226 2.92278 12.9226C2.91884 12.9226 2.91491 12.9226 2.911 12.9226C2.90708 12.9226 2.90318 12.9226 2.89929 12.9226C2.8954 12.9226 2.89152 12.9226 2.88766 12.9226C2.88379 12.9226 2.87993 12.9226 2.87609 12.9226C2.87225 12.9226 2.86841 12.9226 2.86459 12.9226C2.86077 12.9226 2.85697 12.9226 2.85317 12.9226C2.84937 12.9226 2.84559 12.9226 2.84182 12.9226C2.83805 12.9226 2.83429 12.9226 2.83054 12.9226C2.82679 12.9226 2.82305 12.9226 2.81933 12.9226C2.8156 12.9226 2.81189 12.9226 2.80819 12.9226C2.80449 12.9226 2.80081 12.9226 2.79713 12.9226C2.79345 12.9226 2.78979 12.9226 2.78614 12.9226C2.78249 12.9226 2.77885 12.9226 2.77522 12.9226C2.7716 12.9226 2.76798 12.9226 2.76438 12.9226C2.76078 12.9226 2.75719 12.9226 2.75361 12.9226C2.75003 12.9226 2.74647 12.9226 2.74292 12.9226C2.73936 12.9226 2.73582 12.9226 2.7323 12.9226C2.72877 12.9226 2.72526 12.9226 2.72175 12.9226C2.71825 12.9226 2.71476 12.9226 2.71128 12.9226C2.70781 12.9226 2.70434 12.9226 2.70089 12.9226C2.69744 12.9226 2.694 12.9226 2.69057 12.9226C2.68715 12.9226 2.68373 12.9226 2.68033 12.9226C2.67693 12.9226 2.67354 12.9226 2.67017 12.9226C2.66679 12.9226 2.66343 12.9226 2.66008 12.9226C2.65673 12.9226 2.65339 12.9226 2.65007 12.9226C2.64674 12.9226 2.64343 12.9226 2.64013 12.9226C2.63684 12.9226 2.63355 12.9226 2.63028 12.9226C2.62701 12.9226 2.62375 12.9226 2.6205 12.9226C2.61725 12.9226 2.61402 12.9226 2.6108 12.9226C2.60758 12.9226 2.60438 12.9226 2.60118 12.9226C2.59799 12.9226 2.59481 12.9226 2.59164 12.9226C2.58847 12.9226 2.58532 12.9226 2.58218 12.9226C2.57904 12.9226 2.57591 12.9226 2.5728 12.9226C2.56968 12.9226 2.56658 12.9226 2.5635 12.9226C2.56041 12.9226 2.55734 12.9226 2.55428 12.9226C2.55122 12.9226 2.54817 12.9226 2.54513 12.9226C2.5421 12.9226 2.53908 12.9226 2.53608 12.9226C2.53307 12.9226 2.53008 12.9226 2.5271 12.9226C2.52412 12.9226 2.52115 12.9226 2.5182 12.9226C2.51525 12.9226 2.51231 12.9226 2.50939 12.9226C2.50646 12.9226 2.50355 12.9226 2.50065 12.9226C2.49776 12.9226 2.49487 12.9226 2.492 12.9226C2.48913 12.9226 2.48628 12.9226 2.48344 12.9226C2.4806 12.9226 2.47777 12.9226 2.47495 12.9226C2.47214 12.9226 2.46934 12.9226 2.46655 12.9226C2.46377 12.9226 2.461 12.9226 2.45824 12.9226C2.45548 12.9226 2.45274 12.9226 2.45001 12.9226C2.44728 12.9226 2.44456 12.9226 2.44186 12.9226C2.43916 12.9226 2.43647 12.9226 2.4338 12.9226C2.43112 12.9226 2.42846 12.9226 2.42582 12.9226C2.42317 12.9226 2.42054 12.9226 2.41793 12.9226C2.41531 12.9226 2.41271 12.9226 2.41012 12.9226C2.40753 12.9226 2.40496 12.9226 2.4024 12.9226C2.39984 12.9226 2.3973 12.9226 2.39477 12.9226C2.39224 12.9226 2.38972 12.9226 2.38722 12.9226C2.38472 12.9226 2.38223 12.9226 2.37976 12.9226C2.37729 12.9226 2.37483 12.9226 2.37239 12.9226C2.36994 12.9226 2.36751 12.9226 2.3651 12.9226C2.36269 12.9226 2.36029 12.9226 2.3579 12.9226C2.35552 12.9226 2.35315 12.9226 2.35079 12.9226C2.34844 12.9226 2.3461 12.9226 2.34377 12.9226C2.34145 12.9226 2.33914 12.9226 2.33684 12.9226C2.33455 12.9226 2.33227 12.9226 2.33 12.9226C2.32773 12.9226 2.32548 12.9226 2.32325 12.9226C2.32101 12.9226 2.31879 12.9226 2.31658 12.9226C2.31438 12.9226 2.31219 12.9226 2.31001 12.9226C2.30784 12.9226 2.30568 12.9226 2.30353 12.9226C2.30138 12.9226 2.29925 12.9226 2.29714 12.9226C2.29502 12.9226 2.29292 12.9226 2.29084 12.9226C2.28875 12.9226 2.28668 12.9226 2.28463 12.9226C2.28258 12.9226 2.28054 12.9226 2.27851 12.9226C2.27649 12.9226 2.27448 12.9226 2.27249 12.9226C2.27049 12.9226 2.26852 12.9226 2.26656 12.9226C2.26459 12.9226 2.26265 12.9226 2.26072 12.9226C2.25878 12.9226 2.25687 12.9226 2.25497 12.9226C2.25307 12.9226 2.25118 12.9226 2.24932 12.9226C2.24745 12.9226 2.24559 12.9226 2.24376 12.9226C2.24192 12.9226 2.2401 12.9226 2.23829 12.9226C2.23648 12.9226 2.23469 12.9226 2.23292 12.9226C2.23114 12.9226 2.22938 12.9226 2.22764 12.9226C2.2259 12.9226 2.22417 12.9226 2.22246 12.9226C2.22075 12.9226 2.21905 12.9226 2.21737 12.9226C2.21569 12.9226 2.21403 12.9226 2.21238 12.9226C2.21073 12.9226 2.2091 12.9226 2.20749 12.9226C2.20587 12.9226 2.20427 12.9226 2.20269 12.9226C2.2011 12.9226 2.19954 12.9226 2.19798 12.9226C2.19643 12.9226 2.1949 12.9226 2.19338 12.9226C2.19186 12.9226 2.19036 12.9226 2.18887 12.9226C2.18738 12.9226 2.18591 12.9226 2.18446 12.9226C2.18301 12.9226 2.18157 12.9226 2.18015 12.9226C2.17872 12.9226 2.17732 12.9226 2.17593 12.9226C2.17454 12.9226 2.17317 12.9226 2.17181 12.9226C2.17046 12.9226 2.16912 12.9226 2.1678 12.9226C2.16647 12.9226 2.16517 12.9226 2.16388 12.9226C2.16259 12.9226 2.16131 12.9226 2.16006 12.9226C2.1588 12.9226 2.15756 12.9226 2.15634 12.9226C2.15511 12.9226 2.15391 12.9226 2.15272 12.9226C2.15153 12.9226 2.15035 12.9226 2.1492 12.9226C2.14804 12.9226 2.1469 12.9226 2.14578 12.9226C2.14465 12.9226 2.14355 12.9226 2.14246 12.9226C2.14137 12.9226 2.1403 12.9226 2.13924 12.9226C2.13819 12.9226 2.13715 12.9226 2.13613 12.9226C2.1351 12.9226 2.1341 12.9226 2.13311 12.9226C2.13212 12.9226 2.13115 12.9226 2.1302 12.9226C2.12925 12.9226 2.12831 12.9226 2.12739 12.9226C2.12647 12.9226 2.12557 12.9226 2.12469 12.9226C2.1238 12.9226 2.12293 12.9226 2.12208 12.9226C2.12123 12.9226 2.1204 12.9226 2.11958 12.9226C2.11877 12.9226 2.11797 12.9226 2.11719 12.9226V13.7226Z" fill="white"/>
</svg>
