<svg width="14" height="14" viewBox="0 0 14 14" fill="none" xmlns="http://www.w3.org/2000/svg">
<path d="M7.85689 1C7.85689 0.779086 7.6778 0.6 7.45689 0.6C7.23597 0.6 7.05689 0.779086 7.05689 1H7.85689ZM13.4816 11.4026L13.8734 11.4829L13.9718 11.0026H13.4816V11.4026ZM1.38281 11.4026V11.0026H0.959248L0.983467 11.4255L1.38281 11.4026ZM11.8519 13.294L11.8601 13.6939L11.9209 13.6927L11.9786 13.6734L11.8519 13.294ZM6.17294 1.6284L6.56266 1.71849L6.76421 0.846573L5.98013 1.27793L6.17294 1.6284ZM6.17294 9.88651V10.2865C6.30547 10.2865 6.42941 10.2209 6.50386 10.1112C6.57831 10.0016 6.59362 9.86215 6.54473 9.73896L6.17294 9.88651ZM1.38281 9.88651L0.984222 9.85296L0.947726 10.2865H1.38281V9.88651ZM1.71963 12.6264L2.09068 12.477L2.08162 12.4545L2.06992 12.4333L1.71963 12.6264ZM10.2717 13.3226V13.7227L10.2782 13.7226L10.2717 13.3226ZM7.05689 1V11.4026H7.85689V1H7.05689ZM7.45689 11.8026H13.4816V11.0026H7.45689V11.8026ZM7.45689 11.0026H1.38281V11.8026H7.45689V11.0026ZM11.9786 13.6734C12.5087 13.4965 13.5986 12.8247 13.8734 11.4829L13.0897 11.3223C12.8905 12.2947 12.0841 12.7948 11.7253 12.9146L11.9786 13.6734ZM5.78321 1.53831C5.56553 2.47999 5.30413 3.92181 5.22775 5.46138C5.15172 6.99373 5.25667 8.66217 5.80115 10.0341L6.54473 9.73896C6.06204 8.52277 5.953 6.98786 6.02677 5.50103C6.10017 4.02142 6.35236 2.62822 6.56266 1.71849L5.78321 1.53831ZM6.17294 9.48652H1.38281V10.2865H6.17294V9.48652ZM1.7814 9.92007C1.86824 8.88853 2.205 7.3392 2.93227 5.82494C3.65933 4.31111 4.76243 2.86091 6.36574 1.97886L5.98013 1.27793C4.18591 2.26501 2.98448 3.86838 2.21113 5.47859C1.43799 7.08835 1.07846 8.73352 0.984222 9.85296L1.7814 9.92007ZM0.983467 11.4255C1.00378 11.7801 1.10673 12.3432 1.36934 12.8196L2.06992 12.4333C1.88246 12.0933 1.79804 11.657 1.78216 11.3797L0.983467 11.4255ZM10.2782 13.7226C10.8636 13.7131 11.403 13.7032 11.8601 13.6939L11.8438 12.8941C11.3879 12.9033 10.8497 12.9132 10.2652 12.9227L10.2782 13.7226ZM1.34859 12.7759C1.40973 12.9277 1.52844 13.1453 1.70046 13.3324C1.86829 13.5148 2.13897 13.7226 2.5 13.7226V12.9226C2.46103 12.9226 2.38826 12.8984 2.28926 12.7908C2.19447 12.6877 2.12299 12.5573 2.09068 12.477L1.34859 12.7759ZM2.5 13.7226C2.50078 13.7226 2.50158 13.7226 2.5024 13.7226C2.50321 13.7226 2.50404 13.7226 2.5049 13.7226C2.50575 13.7226 2.50661 13.7226 2.5075 13.7226C2.50838 13.7226 2.50929 13.7226 2.5102 13.7226C2.51112 13.7226 2.51206 13.7226 2.51301 13.7226C2.51397 13.7226 2.51494 13.7226 2.51592 13.7226C2.51691 13.7226 2.51792 13.7226 2.51894 13.7226C2.51996 13.7226 2.521 13.7226 2.52205 13.7226C2.52311 13.7226 2.52418 13.7226 2.52527 13.7226C2.52636 13.7226 2.52747 13.7226 2.52859 13.7226C2.52971 13.7226 2.53085 13.7226 2.53201 13.7226C2.53317 13.7226 2.53434 13.7226 2.53553 13.7226C2.53672 13.7226 2.53793 13.7226 2.53915 13.7226C2.54037 13.7226 2.54161 13.7226 2.54287 13.7226C2.54413 13.7226 2.5454 13.7226 2.54669 13.7226C2.54798 13.7226 2.54928 13.7226 2.55061 13.7226C2.55193 13.7226 2.55327 13.7226 2.55463 13.7226C2.55598 13.7226 2.55735 13.7226 2.55874 13.7226C2.56013 13.7226 2.56154 13.7226 2.56296 13.7226C2.56438 13.7226 2.56582 13.7226 2.56727 13.7226C2.56873 13.7226 2.5702 13.7226 2.57168 13.7226C2.57317 13.7226 2.57467 13.7226 2.57619 13.7226C2.57771 13.7226 2.57925 13.7226 2.5808 13.7226C2.58235 13.7226 2.58392 13.7226 2.5855 13.7226C2.58708 13.7226 2.58868 13.7226 2.5903 13.7226C2.59191 13.7226 2.59355 13.7226 2.59519 13.7226C2.59684 13.7226 2.59851 13.7226 2.60019 13.7226C2.60186 13.7226 2.60356 13.7226 2.60527 13.7226C2.60698 13.7226 2.60871 13.7226 2.61045 13.7226C2.6122 13.7226 2.61396 13.7226 2.61573 13.7226C2.61751 13.7226 2.6193 13.7226 2.6211 13.7226C2.62291 13.7226 2.62473 13.7226 2.62657 13.7226C2.62841 13.7226 2.63026 13.7226 2.63213 13.7226C2.634 13.7226 2.63588 13.7226 2.63778 13.7226C2.63968 13.7226 2.6416 13.7226 2.64353 13.7226C2.64546 13.7226 2.64741 13.7226 2.64937 13.7226C2.65133 13.7226 2.65331 13.7226 2.6553 13.7226C2.65729 13.7226 2.6593 13.7226 2.66132 13.7226C2.66335 13.7226 2.66539 13.7226 2.66744 13.7226C2.6695 13.7226 2.67157 13.7226 2.67365 13.7226C2.67574 13.7226 2.67784 13.7226 2.67995 13.7226C2.68207 13.7226 2.6842 13.7226 2.68634 13.7226C2.68849 13.7226 2.69065 13.7226 2.69282 13.7226C2.695 13.7226 2.69719 13.7226 2.6994 13.7226C2.7016 13.7226 2.70382 13.7226 2.70606 13.7226C2.7083 13.7226 2.71055 13.7226 2.71281 13.7226C2.71508 13.7226 2.71736 13.7226 2.71965 13.7226C2.72195 13.7226 2.72426 13.7226 2.72659 13.7226C2.72891 13.7226 2.73125 13.7226 2.73361 13.7226C2.73596 13.7226 2.73833 13.7226 2.74072 13.7226C2.7431 13.7226 2.7455 13.7226 2.74791 13.7226C2.75033 13.7226 2.75275 13.7226 2.7552 13.7226C2.75764 13.7226 2.7601 13.7226 2.76257 13.7226C2.76504 13.7226 2.76753 13.7226 2.77003 13.7226C2.77253 13.7226 2.77505 13.7226 2.77758 13.7226C2.78011 13.7226 2.78265 13.7226 2.78521 13.7226C2.78777 13.7226 2.79034 13.7226 2.79293 13.7226C2.79552 13.7226 2.79812 13.7226 2.80074 13.7226C2.80335 13.7226 2.80599 13.7226 2.80863 13.7226C2.81128 13.7226 2.81393 13.7226 2.81661 13.7226C2.81928 13.7226 2.82197 13.7226 2.82467 13.7226C2.82737 13.7226 2.83009 13.7226 2.83282 13.7226C2.83555 13.7226 2.83829 13.7226 2.84105 13.7226C2.84381 13.7226 2.84658 13.7226 2.84937 13.7226C2.85215 13.7226 2.85495 13.7226 2.85777 13.7226C2.86058 13.7226 2.86341 13.7226 2.86625 13.7226C2.86909 13.7226 2.87195 13.7226 2.87482 13.7226C2.87769 13.7226 2.88057 13.7226 2.88347 13.7226C2.88636 13.7226 2.88927 13.7226 2.8922 13.7226C2.89512 13.7226 2.89806 13.7226 2.90101 13.7226C2.90396 13.7226 2.90693 13.7226 2.90991 13.7226C2.91289 13.7226 2.91588 13.7226 2.91889 13.7226C2.92189 13.7226 2.92491 13.7226 2.92795 13.7226C2.93098 13.7226 2.93403 13.7226 2.93709 13.7226C2.94015 13.7226 2.94322 13.7226 2.94631 13.7226C2.9494 13.7226 2.9525 13.7226 2.95561 13.7226C2.95872 13.7226 2.96185 13.7226 2.96499 13.7226C2.96813 13.7226 2.97129 13.7226 2.97445 13.7226C2.97762 13.7226 2.9808 13.7226 2.98399 13.7226C2.98719 13.7226 2.99039 13.7226 2.99361 13.7226C2.99683 13.7226 3.00007 13.7226 3.00331 13.7226C3.00656 13.7226 3.00982 13.7226 3.01309 13.7226C3.01636 13.7226 3.01965 13.7226 3.02295 13.7226C3.02624 13.7226 3.02956 13.7226 3.03288 13.7226C3.0362 13.7226 3.03954 13.7226 3.04289 13.7226C3.04624 13.7226 3.0496 13.7226 3.05298 13.7226C3.05635 13.7226 3.05974 13.7226 3.06314 13.7226C3.06654 13.7226 3.06996 13.7226 3.07338 13.7226C3.07681 13.7226 3.08025 13.7226 3.0837 13.7226C3.08715 13.7226 3.09062 13.7226 3.0941 13.7226C3.09757 13.7226 3.10106 13.7226 3.10457 13.7226C3.10807 13.7226 3.11158 13.7226 3.11511 13.7226C3.11864 13.7226 3.12218 13.7226 3.12573 13.7226C3.12928 13.7226 3.13285 13.7226 3.13642 13.7226C3.14 13.7226 3.14359 13.7226 3.14719 13.7226C3.15079 13.7226 3.15441 13.7226 3.15804 13.7226C3.16166 13.7226 3.1653 13.7226 3.16895 13.7226C3.1726 13.7226 3.17627 13.7226 3.17994 13.7226C3.18362 13.7226 3.18731 13.7226 3.19101 13.7226C3.19471 13.7226 3.19842 13.7226 3.20214 13.7226C3.20587 13.7226 3.2096 13.7226 3.21335 13.7226C3.2171 13.7226 3.22086 13.7226 3.22463 13.7226C3.2284 13.7226 3.23219 13.7226 3.23598 13.7226C3.23978 13.7226 3.24359 13.7226 3.24741 13.7226C3.25123 13.7226 3.25506 13.7226 3.2589 13.7226C3.26275 13.7226 3.2666 13.7226 3.27047 13.7226C3.27433 13.7226 3.27821 13.7226 3.2821 13.7226C3.28599 13.7226 3.2899 13.7226 3.29381 13.7226C3.29772 13.7226 3.30165 13.7226 3.30559 13.7226C3.30953 13.7226 3.31347 13.7226 3.31743 13.7226C3.32139 13.7226 3.32537 13.7226 3.32935 13.7226C3.33333 13.7226 3.33733 13.7226 3.34133 13.7226C3.34534 13.7226 3.34936 13.7226 3.35339 13.7226C3.35742 13.7226 3.36146 13.7226 3.36551 13.7226C3.36956 13.7226 3.37363 13.7226 3.3777 13.7226C3.38177 13.7226 3.38586 13.7226 3.38996 13.7226C3.39405 13.7226 3.39816 13.7226 3.40228 13.7226C3.4064 13.7226 3.41053 13.7226 3.41467 13.7226C3.41882 13.7226 3.42297 13.7226 3.42713 13.7226C3.4313 13.7226 3.43547 13.7226 3.43966 13.7226C3.44385 13.7226 3.44804 13.7226 3.45225 13.7226C3.45646 13.7226 3.46068 13.7226 3.46491 13.7226C3.46914 13.7226 3.47338 13.7226 3.47763 13.7226C3.48188 13.7226 3.48615 13.7226 3.49042 13.7226C3.49469 13.7226 3.49898 13.7226 3.50327 13.7226C3.50757 13.7226 3.51187 13.7226 3.51619 13.7226C3.52051 13.7226 3.52483 13.7226 3.52917 13.7226C3.53351 13.7226 3.53786 13.7226 3.54222 13.7226C3.54658 13.7226 3.55095 13.7226 3.55533 13.7226C3.55971 13.7226 3.5641 13.7226 3.5685 13.7226C3.5729 13.7226 3.57731 13.7226 3.58174 13.7226C3.58616 13.7226 3.59059 13.7226 3.59503 13.7226C3.59948 13.7226 3.60393 13.7226 3.60839 13.7226C3.61286 13.7226 3.61733 13.7226 3.62182 13.7226C3.6263 13.7226 3.6308 13.7226 3.6353 13.7226C3.63981 13.7226 3.64432 13.7226 3.64885 13.7226C3.65337 13.7226 3.65791 13.7226 3.66245 13.7226C3.667 13.7226 3.67156 13.7226 3.67612 13.7226C3.68069 13.7226 3.68526 13.7226 3.68985 13.7226C3.69444 13.7226 3.69903 13.7226 3.70364 13.7226C3.70825 13.7226 3.71286 13.7226 3.71749 13.7226C3.72211 13.7226 3.72675 13.7226 3.7314 13.7226C3.73604 13.7226 3.7407 13.7226 3.74536 13.7226C3.75003 13.7226 3.7547 13.7226 3.75939 13.7226C3.76407 13.7226 3.76877 13.7226 3.77347 13.7226C3.77818 13.7226 3.78289 13.7226 3.78762 13.7226C3.79234 13.7226 3.79707 13.7226 3.80182 13.7226C3.80656 13.7226 3.81131 13.7226 3.81607 13.7226C3.82084 13.7226 3.82561 13.7226 3.83039 13.7226C3.83517 13.7226 3.83996 13.7226 3.84476 13.7226C3.84956 13.7226 3.85437 13.7226 3.85919 13.7226C3.86401 13.7226 3.86884 13.7226 3.87368 13.7226C3.87851 13.7226 3.88336 13.7226 3.88822 13.7226C3.89307 13.7226 3.89794 13.7226 3.90282 13.7226C3.90769 13.7226 3.91258 13.7226 3.91747 13.7226C3.92236 13.7226 3.92726 13.7226 3.93218 13.7226C3.93709 13.7226 3.94201 13.7226 3.94694 13.7226C3.95187 13.7226 3.95681 13.7226 3.96176 13.7226C3.9667 13.7226 3.97166 13.7226 3.97663 13.7226C3.98159 13.7226 3.98657 13.7226 3.99155 13.7226C3.99654 13.7226 4.00153 13.7226 4.00653 13.7226C4.01153 13.7226 4.01654 13.7226 4.02156 13.7226C4.02658 13.7226 4.03161 13.7226 4.03665 13.7226C4.04168 13.7226 4.04673 13.7226 4.05178 13.7226C4.05684 13.7226 4.0619 13.7226 4.06697 13.7226C4.07205 13.7226 4.07713 13.7226 4.08222 13.7226C4.0873 13.7226 4.0924 13.7226 4.09751 13.7226C4.10261 13.7226 4.10773 13.7226 4.11285 13.7226C4.11798 13.7226 4.12311 13.7226 4.12825 13.7226C4.13339 13.7226 4.13854 13.7226 4.14369 13.7226C4.14885 13.7226 4.15402 13.7226 4.15919 13.7226C4.16436 13.7226 4.16955 13.7226 4.17474 13.7226C4.17993 13.7226 4.18513 13.7226 4.19033 13.7226C4.19554 13.7226 4.20075 13.7226 4.20598 13.7226C4.2112 13.7226 4.21643 13.7226 4.22167 13.7226C4.22691 13.7226 4.23216 13.7226 4.23742 13.7226C4.24267 13.7226 4.24793 13.7226 4.25321 13.7226C4.25848 13.7226 4.26376 13.7226 4.26905 13.7226C4.27433 13.7226 4.27963 13.7226 4.28493 13.7226C4.29024 13.7226 4.29555 13.7226 4.30087 13.7226C4.30619 13.7226 4.31152 13.7226 4.31685 13.7226C4.32219 13.7226 4.32753 13.7226 4.33288 13.7226C4.33823 13.7226 4.34359 13.7226 4.34896 13.7226C4.35432 13.7226 4.3597 13.7226 4.36508 13.7226C4.37046 13.7226 4.37585 13.7226 4.38125 13.7226C4.38664 13.7226 4.39205 13.7226 4.39746 13.7226C4.40287 13.7226 4.40829 13.7226 4.41372 13.7226C4.41915 13.7226 4.42458 13.7226 4.43002 13.7226C4.43547 13.7226 4.44091 13.7226 4.44637 13.7226C4.45183 13.7226 4.45729 13.7226 4.46276 13.7226C4.46824 13.7226 4.47371 13.7226 4.4792 13.7226C4.48469 13.7226 4.49018 13.7226 4.49568 13.7226C4.50118 13.7226 4.50669 13.7226 4.51221 13.7226C4.51772 13.7226 4.52324 13.7226 4.52877 13.7226C4.5343 13.7226 4.53984 13.7226 4.54538 13.7226C4.55093 13.7226 4.55648 13.7226 4.56203 13.7226C4.56759 13.7226 4.57316 13.7226 4.57873 13.7226C4.5843 13.7226 4.58988 13.7226 4.59547 13.7226C4.60105 13.7226 4.60664 13.7226 4.61224 13.7226C4.61784 13.7226 4.62345 13.7226 4.62906 13.7226C4.63467 13.7226 4.64029 13.7226 4.64592 13.7226C4.65155 13.7226 4.65718 13.7226 4.66282 13.7226C4.66846 13.7226 4.67411 13.7226 4.67976 13.7226C4.68542 13.7226 4.69108 13.7226 4.69674 13.7226C4.70241 13.7226 4.70808 13.7226 4.71376 13.7226C4.71944 13.7226 4.72513 13.7226 4.73082 13.7226C4.73651 13.7226 4.74221 13.7226 4.74792 13.7226C4.75363 13.7226 4.75934 13.7226 4.76506 13.7226C4.77078 13.7226 4.7765 13.7226 4.78223 13.7226C4.78796 13.7226 4.7937 13.7226 4.79945 13.7226C4.80519 13.7226 4.81094 13.7226 4.8167 13.7226C4.82245 13.7226 4.82822 13.7226 4.83398 13.7226C4.83975 13.7226 4.84553 13.7226 4.85131 13.7226C4.85709 13.7226 4.86288 13.7226 4.86867 13.7226C4.87447 13.7226 4.88027 13.7226 4.88607 13.7226C4.89188 13.7226 4.89769 13.7226 4.90351 13.7226C4.90932 13.7226 4.91515 13.7226 4.92098 13.7226C4.92681 13.7226 4.93264 13.7226 4.93848 13.7226C4.94432 13.7226 4.95017 13.7226 4.95602 13.7226C4.96188 13.7226 4.96774 13.7226 4.9736 13.7226C4.97946 13.7226 4.98533 13.7226 4.99121 13.7226C4.99709 13.7226 5.00297 13.7226 5.00886 13.7226C5.01474 13.7226 5.02064 13.7226 5.02653 13.7226C5.03243 13.7226 5.03834 13.7226 5.04425 13.7226C5.05016 13.7226 5.05607 13.7226 5.06199 13.7226C5.06791 13.7226 5.07384 13.7226 5.07977 13.7226C5.0857 13.7226 5.09164 13.7226 5.09758 13.7226C5.10352 13.7226 5.10947 13.7226 5.11543 13.7226C5.12138 13.7226 5.12734 13.7226 5.1333 13.7226C5.13926 13.7226 5.14523 13.7226 5.15121 13.7226C5.15718 13.7226 5.16316 13.7226 5.16915 13.7226C5.17513 13.7226 5.18112 13.7226 5.18712 13.7226C5.19311 13.7226 5.19911 13.7226 5.20512 13.7226C5.21112 13.7226 5.21713 13.7226 5.22315 13.7226C5.22916 13.7226 5.23518 13.7226 5.24121 13.7226C5.24723 13.7226 5.25326 13.7226 5.2593 13.7226C5.26534 13.7226 5.27138 13.7226 5.27742 13.7226C5.28347 13.7226 5.28952 13.7226 5.29557 13.7226C5.30162 13.7226 5.30768 13.7226 5.31375 13.7226C5.31981 13.7226 5.32588 13.7226 5.33195 13.7226C5.33803 13.7226 5.34411 13.7226 5.35019 13.7226C5.35627 13.7226 5.36236 13.7226 5.36845 13.7226C5.37455 13.7226 5.38064 13.7226 5.38674 13.7226C5.39285 13.7226 5.39895 13.7226 5.40506 13.7226C5.41117 13.7226 5.41729 13.7226 5.42341 13.7226C5.42953 13.7226 5.43565 13.7226 5.44178 13.7226C5.44791 13.7226 5.45404 13.7226 5.46018 13.7226C5.46631 13.7226 5.47245 13.7226 5.4786 13.7226C5.48475 13.7226 5.49089 13.7226 5.49705 13.7226C5.5032 13.7226 5.50936 13.7226 5.51552 13.7226C5.52169 13.7226 5.52785 13.7226 5.53402 13.7226C5.54019 13.7226 5.54637 13.7226 5.55255 13.7226C5.55873 13.7226 5.56491 13.7226 5.5711 13.7226C5.57728 13.7226 5.58348 13.7226 5.58967 13.7226C5.59587 13.7226 5.60206 13.7226 5.60827 13.7226C5.61447 13.7226 5.62068 13.7226 5.62689 13.7226C5.6331 13.7226 5.63931 13.7226 5.64553 13.7226C5.65175 13.7226 5.65797 13.7226 5.6642 13.7226C5.67042 13.7226 5.67665 13.7226 5.68289 13.7226C5.68912 13.7226 5.69536 13.7226 5.7016 13.7226C5.70784 13.7226 5.71408 13.7226 5.72033 13.7226C5.72658 13.7226 5.73283 13.7226 5.73909 13.7226C5.74534 13.7226 5.7516 13.7226 5.75786 13.7226C5.76412 13.7226 5.77039 13.7226 5.77666 13.7226C5.78293 13.7226 5.7892 13.7226 5.79548 13.7226C5.80175 13.7226 5.80803 13.7226 5.81431 13.7226C5.8206 13.7226 5.82688 13.7226 5.83317 13.7226C5.83946 13.7226 5.84575 13.7226 5.85205 13.7226C5.85835 13.7226 5.86464 13.7226 5.87095 13.7226C5.87725 13.7226 5.88355 13.7226 5.88986 13.7226C5.89617 13.7226 5.90248 13.7226 5.9088 13.7226C5.91511 13.7226 5.92143 13.7226 5.92775 13.7226C5.93407 13.7226 5.94039 13.7226 5.94672 13.7226C5.95305 13.7226 5.95938 13.7226 5.96571 13.7226C5.97204 13.7226 5.97838 13.7226 5.98472 13.7226C5.99106 13.7226 5.9974 13.7226 6.00374 13.7226C6.01008 13.7226 6.01643 13.7226 6.02278 13.7226C6.02913 13.7226 6.03548 13.7226 6.04184 13.7226C6.04819 13.7226 6.05455 13.7226 6.06091 13.7226C6.06727 13.7226 6.07363 13.7226 6.08 13.7226C6.08637 13.7226 6.09273 13.7226 6.0991 13.7226C6.10548 13.7226 6.11185 13.7226 6.11822 13.7226C6.1246 13.7226 6.13098 13.7226 6.13736 13.7226C6.14374 13.7226 6.15012 13.7226 6.15651 13.7226C6.16289 13.7226 6.16928 13.7226 6.17567 13.7226C6.18206 13.7226 6.18846 13.7226 6.19485 13.7226C6.20125 13.7226 6.20764 13.7226 6.21404 13.7226C6.22044 13.7226 6.22684 13.7226 6.23325 13.7226C6.23965 13.7226 6.24606 13.7226 6.25246 13.7226C6.25887 13.7226 6.26528 13.7226 6.2717 13.7226C6.27811 13.7226 6.28452 13.7226 6.29094 13.7226C6.29735 13.7226 6.30377 13.7226 6.31019 13.7226C6.31661 13.7226 6.32304 13.7226 6.32946 13.7226C6.33588 13.7226 6.34231 13.7226 6.34874 13.7226C6.35517 13.7226 6.3616 13.7226 6.36803 13.7226C6.37446 13.7226 6.38089 13.7226 6.38733 13.7226C6.39376 13.7226 6.4002 13.7226 6.40664 13.7226C6.41308 13.7226 6.41952 13.7226 6.42596 13.7226C6.4324 13.7226 6.43885 13.7226 6.44529 13.7226C6.45174 13.7226 6.45818 13.7226 6.46463 13.7226C6.47108 13.7226 6.47753 13.7226 6.48398 13.7226C6.49043 13.7226 6.49689 13.7226 6.50334 13.7226C6.50979 13.7226 6.51625 13.7226 6.52271 13.7226C6.52916 13.7226 6.53562 13.7226 6.54208 13.7226C6.54854 13.7226 6.555 13.7226 6.56147 13.7226C6.56793 13.7226 6.57439 13.7226 6.58086 13.7226C6.58732 13.7226 6.59379 13.7226 6.60026 13.7226C6.60672 13.7226 6.61319 13.7226 6.61966 13.7226C6.62613 13.7226 6.6326 13.7226 6.63907 13.7226C6.64555 13.7226 6.65202 13.7226 6.65849 13.7226C6.66497 13.7226 6.67144 13.7226 6.67792 13.7226C6.68439 13.7226 6.69087 13.7226 6.69735 13.7226C6.70383 13.7226 6.71031 13.7226 6.71678 13.7226C6.72326 13.7226 6.72975 13.7226 6.73623 13.7226C6.74271 13.7226 6.74919 13.7226 6.75567 13.7226C6.76216 13.7226 6.76864 13.7226 6.77512 13.7226C6.78161 13.7226 6.78809 13.7226 6.79458 13.7226C6.80106 13.7226 6.80755 13.7226 6.81404 13.7226C6.82052 13.7226 6.82701 13.7226 6.8335 13.7226C6.83999 13.7226 6.84648 13.7226 6.85296 13.7226C6.85945 13.7226 6.86594 13.7226 6.87243 13.7226C6.87892 13.7226 6.88541 13.7226 6.8919 13.7226C6.89839 13.7226 6.90489 13.7226 6.91138 13.7226C6.91787 13.7226 6.92436 13.7226 6.93085 13.7226C6.93734 13.7226 6.94384 13.7226 6.95033 13.7226C6.95682 13.7226 6.96331 13.7226 6.96981 13.7226C6.9763 13.7226 6.98279 13.7226 6.98929 13.7226C6.99578 13.7226 7.00227 13.7226 7.00877 13.7226C7.01526 13.7226 7.02175 13.7226 7.02825 13.7226C7.03474 13.7226 7.04123 13.7226 7.04773 13.7226C7.05422 13.7226 7.06072 13.7226 7.06721 13.7226C7.0737 13.7226 7.08019 13.7226 7.08669 13.7226C7.09318 13.7226 7.09967 13.7226 7.10617 13.7226C7.11266 13.7226 7.11915 13.7226 7.12564 13.7226C7.13214 13.7226 7.13863 13.7226 7.14512 13.7226C7.15161 13.7226 7.1581 13.7226 7.1646 13.7226C7.17109 13.7226 7.17758 13.7226 7.18407 13.7226C7.19056 13.7226 7.19705 13.7226 7.20354 13.7226C7.21003 13.7226 7.21652 13.7226 7.223 13.7226C7.22949 13.7226 7.23598 13.7226 7.24247 13.7226C7.24896 13.7226 7.25544 13.7226 7.26193 13.7226C7.26842 13.7226 7.2749 13.7226 7.28139 13.7226C7.28787 13.7226 7.29436 13.7226 7.30084 13.7226C7.30732 13.7226 7.31381 13.7226 7.32029 13.7226C7.32677 13.7226 7.33325 13.7226 7.33973 13.7226C7.34621 13.7226 7.35269 13.7226 7.35917 13.7226C7.36565 13.7226 7.37213 13.7226 7.3786 13.7226C7.38508 13.7226 7.39156 13.7226 7.39803 13.7226C7.40451 13.7226 7.41098 13.7226 7.41745 13.7226C7.42393 13.7226 7.4304 13.7226 7.43687 13.7226C7.44334 13.7226 7.44981 13.7226 7.45628 13.7226C7.46275 13.7226 7.46922 13.7226 7.47568 13.7226C7.48215 13.7226 7.48861 13.7226 7.49508 13.7226C7.50154 13.7226 7.508 13.7226 7.51446 13.7226C7.52093 13.7226 7.52739 13.7226 7.53384 13.7226C7.5403 13.7226 7.54676 13.7226 7.55322 13.7226C7.55967 13.7226 7.56613 13.7226 7.57258 13.7226C7.57903 13.7226 7.58548 13.7226 7.59193 13.7226C7.59838 13.7226 7.60483 13.7226 7.61128 13.7226C7.61773 13.7226 7.62417 13.7226 7.63062 13.7226C7.63706 13.7226 7.6435 13.7226 7.64994 13.7226C7.65638 13.7226 7.66282 13.7226 7.66926 13.7226C7.6757 13.7226 7.68213 13.7226 7.68856 13.7226C7.695 13.7226 7.70143 13.7226 7.70786 13.7226C7.71429 13.7226 7.72072 13.7226 7.72714 13.7226C7.73357 13.7226 7.73999 13.7226 7.74642 13.7226C7.75284 13.7226 7.75926 13.7226 7.76568 13.7226C7.7721 13.7226 7.77851 13.7226 7.78493 13.7226C7.79134 13.7226 7.79775 13.7226 7.80417 13.7226C7.81058 13.7226 7.81698 13.7226 7.82339 13.7226C7.8298 13.7226 7.8362 13.7226 7.8426 13.7226C7.849 13.7226 7.8554 13.7226 7.8618 13.7226C7.8682 13.7226 7.87459 13.7226 7.88099 13.7226C7.88738 13.7226 7.89377 13.7226 7.90016 13.7226C7.90654 13.7226 7.91293 13.7226 7.91931 13.7226C7.9257 13.7226 7.93208 13.7226 7.93846 13.7226C7.94484 13.7226 7.95121 13.7226 7.95758 13.7226C7.96396 13.7226 7.97033 13.7226 7.9767 13.7226C7.98307 13.7226 7.98943 13.7226 7.99579 13.7226C8.00216 13.7226 8.00852 13.7226 8.01488 13.7226C8.02123 13.7226 8.02759 13.7226 8.03394 13.7226C8.04029 13.7226 8.04664 13.7226 8.05299 13.7226C8.05934 13.7226 8.06568 13.7226 8.07202 13.7226C8.07837 13.7226 8.0847 13.7226 8.09104 13.7226C8.09738 13.7226 8.10371 13.7226 8.11004 13.7226C8.11637 13.7226 8.12269 13.7226 8.12902 13.7226C8.13534 13.7226 8.14166 13.7226 8.14798 13.7226C8.1543 13.7226 8.16061 13.7226 8.16693 13.7226C8.17324 13.7226 8.17955 13.7226 8.18585 13.7226C8.19216 13.7226 8.19846 13.7226 8.20476 13.7226C8.21106 13.7226 8.21735 13.7226 8.22365 13.7226C8.22994 13.7226 8.23623 13.7226 8.24252 13.7226C8.2488 13.7226 8.25508 13.7226 8.26136 13.7226C8.26764 13.7226 8.27392 13.7226 8.28019 13.7226C8.28647 13.7226 8.29273 13.7226 8.299 13.7226C8.30527 13.7226 8.31153 13.7226 8.31779 13.7226C8.32405 13.7226 8.3303 13.7226 8.33655 13.7226C8.34281 13.7226 8.34905 13.7226 8.3553 13.7226C8.36154 13.7226 8.36778 13.7226 8.37402 13.7226C8.38026 13.7226 8.38649 13.7226 8.39272 13.7226C8.39895 13.7226 8.40518 13.7226 8.4114 13.7226C8.41762 13.7226 8.42384 13.7226 8.43006 13.7226C8.43627 13.7226 8.44248 13.7226 8.44869 13.7226C8.4549 13.7226 8.4611 13.7226 8.4673 13.7226C8.4735 13.7226 8.47969 13.7226 8.48588 13.7226C8.49208 13.7226 8.49826 13.7226 8.50445 13.7226C8.51063 13.7226 8.51681 13.7226 8.52298 13.7226C8.52916 13.7226 8.53533 13.7226 8.5415 13.7226C8.54766 13.7226 8.55383 13.7226 8.55999 13.7226C8.56614 13.7226 8.5723 13.7226 8.57845 13.7226C8.5846 13.7226 8.59074 13.7226 8.59689 13.7226C8.60303 13.7226 8.60916 13.7226 8.6153 13.7226C8.62143 13.7226 8.62756 13.7226 8.63368 13.7226C8.63981 13.7226 8.64593 13.7226 8.65204 13.7226C8.65816 13.7226 8.66427 13.7226 8.67037 13.7226C8.67648 13.7226 8.68258 13.7226 8.68868 13.7226C8.69478 13.7226 8.70087 13.7226 8.70696 13.7226C8.71305 13.7226 8.71913 13.7226 8.72521 13.7226C8.73129 13.7226 8.73736 13.7226 8.74343 13.7226C8.7495 13.7226 8.75556 13.7226 8.76162 13.7226C8.76768 13.7226 8.77374 13.7226 8.77979 13.7226C8.78584 13.7226 8.79188 13.7226 8.79792 13.7226C8.80396 13.7226 8.81 13.7226 8.81603 13.7226C8.82206 13.7226 8.82809 13.7226 8.83411 13.7226C8.84013 13.7226 8.84614 13.7226 8.85215 13.7226C8.85816 13.7226 8.86417 13.7226 8.87017 13.7226C8.87617 13.7226 8.88217 13.7226 8.88816 13.7226C8.89415 13.7226 8.90013 13.7226 8.90611 13.7226C8.91209 13.7226 8.91807 13.7226 8.92404 13.7226C8.93001 13.7226 8.93597 13.7226 8.94193 13.7226C8.94789 13.7226 8.95384 13.7226 8.95979 13.7226C8.96574 13.7226 8.97168 13.7226 8.97762 13.7226C8.98356 13.7226 8.98949 13.7226 8.99541 13.7226C9.00134 13.7226 9.00726 13.7226 9.01318 13.7226C9.01909 13.7226 9.025 13.7226 9.03091 13.7226C9.03681 13.7226 9.04271 13.7226 9.0486 13.7226C9.0545 13.7226 9.06039 13.7226 9.06627 13.7226C9.07215 13.7226 9.07803 13.7226 9.0839 13.7226C9.08977 13.7226 9.09563 13.7226 9.10149 13.7226C9.10735 13.7226 9.1132 13.7226 9.11905 13.7226C9.1249 13.7226 9.13074 13.7226 9.13658 13.7226C9.14241 13.7226 9.14824 13.7226 9.15406 13.7226C9.15989 13.7226 9.16571 13.7226 9.17152 13.7226C9.17733 13.7226 9.18314 13.7226 9.18894 13.7226C9.19474 13.7226 9.20053 13.7226 9.20632 13.7226C9.21211 13.7226 9.21789 13.7226 9.22366 13.7226C9.22944 13.7226 9.23521 13.7226 9.24097 13.7226C9.24673 13.7226 9.25249 13.7226 9.25824 13.7226C9.26399 13.7226 9.26974 13.7226 9.27548 13.7226C9.28121 13.7226 9.28695 13.7226 9.29267 13.7226C9.2984 13.7226 9.30412 13.7226 9.30983 13.7226C9.31554 13.7226 9.32125 13.7226 9.32695 13.7226C9.33265 13.7226 9.33834 13.7226 9.34403 13.7226C9.34971 13.7226 9.35539 13.7226 9.36107 13.7226C9.36674 13.7226 9.37241 13.7226 9.37807 13.7226C9.38373 13.7226 9.38939 13.7226 9.39503 13.7226C9.40068 13.7226 9.40632 13.7226 9.41195 13.7226C9.41759 13.7226 9.42321 13.7226 9.42883 13.7226C9.43446 13.7226 9.44007 13.7226 9.44568 13.7226C9.45128 13.7226 9.45688 13.7226 9.46248 13.7226C9.46807 13.7226 9.47365 13.7226 9.47923 13.7226C9.48481 13.7226 9.49039 13.7226 9.49595 13.7226C9.50152 13.7226 9.50707 13.7226 9.51262 13.7226C9.51818 13.7226 9.52372 13.7226 9.52926 13.7226C9.53479 13.7226 9.54032 13.7226 9.54585 13.7226C9.55137 13.7226 9.55689 13.7226 9.56239 13.7226C9.5679 13.7226 9.5734 13.7226 9.5789 13.7226C9.58439 13.7226 9.58988 13.7226 9.59536 13.7226C9.60084 13.7226 9.60631 13.7226 9.61177 13.7226C9.61724 13.7226 9.6227 13.7226 9.62815 13.7226C9.6336 13.7226 9.63904 13.7226 9.64447 13.7226C9.64991 13.7226 9.65534 13.7226 9.66076 13.7226C9.66618 13.7226 9.67159 13.7226 9.677 13.7226C9.6824 13.7226 9.6878 13.7226 9.69319 13.7226C9.69858 13.7226 9.70396 13.7226 9.70933 13.7226C9.71471 13.7226 9.72008 13.7226 9.72543 13.7226C9.73079 13.7226 9.73615 13.7226 9.74149 13.7226C9.74683 13.7226 9.75217 13.7226 9.7575 13.7226C9.76282 13.7226 9.76814 13.7226 9.77346 13.7226C9.77877 13.7226 9.78407 13.7226 9.78937 13.7226C9.79467 13.7226 9.79995 13.7226 9.80523 13.7226C9.81051 13.7226 9.81579 13.7226 9.82105 13.7226C9.82632 13.7226 9.83157 13.7226 9.83682 13.7226C9.84207 13.7226 9.84731 13.7226 9.85254 13.7226C9.85777 13.7226 9.863 13.7226 9.86821 13.7226C9.87343 13.7226 9.87864 13.7226 9.88384 13.7226C9.88903 13.7226 9.89423 13.7226 9.89941 13.7226C9.90459 13.7226 9.90977 13.7226 9.91493 13.7226C9.9201 13.7226 9.92525 13.7226 9.9304 13.7226C9.93555 13.7226 9.94069 13.7226 9.94583 13.7226C9.95096 13.7226 9.95608 13.7226 9.9612 13.7226C9.96631 13.7226 9.97142 13.7226 9.97652 13.7226C9.98162 13.7226 9.98671 13.7226 9.99179 13.7226C9.99687 13.7226 10.0019 13.7226 10.007 13.7226C10.0121 13.7226 10.0171 13.7226 10.0222 13.7226C10.0272 13.7226 10.0323 13.7226 10.0373 13.7226C10.0423 13.7226 10.0473 13.7226 10.0523 13.7226C10.0574 13.7226 10.0624 13.7226 10.0673 13.7226C10.0723 13.7226 10.0773 13.7226 10.0823 13.7226C10.0873 13.7226 10.0922 13.7226 10.0972 13.7226C10.1022 13.7226 10.1071 13.7226 10.112 13.7226C10.117 13.7226 10.1219 13.7226 10.1268 13.7226C10.1318 13.7226 10.1367 13.7226 10.1416 13.7226C10.1465 13.7226 10.1514 13.7226 10.1563 13.7226C10.1611 13.7226 10.166 13.7226 10.1709 13.7226C10.1758 13.7226 10.1806 13.7226 10.1855 13.7226C10.1903 13.7226 10.1951 13.7226 10.2 13.7226C10.2048 13.7226 10.2096 13.7226 10.2144 13.7226C10.2192 13.7226 10.224 13.7226 10.2288 13.7226C10.2336 13.7226 10.2384 13.7226 10.2432 13.7226C10.248 13.7226 10.2527 13.7226 10.2575 13.7226C10.2622 13.7226 10.267 13.7226 10.2717 13.7226V12.9226C10.267 12.9226 10.2622 12.9226 10.2575 12.9226C10.2527 12.9226 10.248 12.9226 10.2432 12.9226C10.2384 12.9226 10.2336 12.9226 10.2288 12.9226C10.224 12.9226 10.2192 12.9226 10.2144 12.9226C10.2096 12.9226 10.2048 12.9226 10.2 12.9226C10.1951 12.9226 10.1903 12.9226 10.1855 12.9226C10.1806 12.9226 10.1758 12.9226 10.1709 12.9226C10.166 12.9226 10.1611 12.9226 10.1563 12.9226C10.1514 12.9226 10.1465 12.9226 10.1416 12.9226C10.1367 12.9226 10.1318 12.9226 10.1268 12.9226C10.1219 12.9226 10.117 12.9226 10.112 12.9226C10.1071 12.9226 10.1022 12.9226 10.0972 12.9226C10.0922 12.9226 10.0873 12.9226 10.0823 12.9226C10.0773 12.9226 10.0723 12.9226 10.0673 12.9226C10.0624 12.9226 10.0574 12.9226 10.0523 12.9226C10.0473 12.9226 10.0423 12.9226 10.0373 12.9226C10.0323 12.9226 10.0272 12.9226 10.0222 12.9226C10.0171 12.9226 10.0121 12.9226 10.007 12.9226C10.0019 12.9226 9.99687 12.9226 9.99179 12.9226C9.98671 12.9226 9.98162 12.9226 9.97652 12.9226C9.97142 12.9226 9.96631 12.9226 9.9612 12.9226C9.95608 12.9226 9.95096 12.9226 9.94583 12.9226C9.94069 12.9226 9.93555 12.9226 9.9304 12.9226C9.92525 12.9226 9.9201 12.9226 9.91493 12.9226C9.90977 12.9226 9.90459 12.9226 9.89941 12.9226C9.89423 12.9226 9.88903 12.9226 9.88384 12.9226C9.87864 12.9226 9.87343 12.9226 9.86821 12.9226C9.863 12.9226 9.85777 12.9226 9.85254 12.9226C9.84731 12.9226 9.84207 12.9226 9.83682 12.9226C9.83157 12.9226 9.82632 12.9226 9.82105 12.9226C9.81579 12.9226 9.81051 12.9226 9.80523 12.9226C9.79995 12.9226 9.79467 12.9226 9.78937 12.9226C9.78407 12.9226 9.77877 12.9226 9.77346 12.9226C9.76814 12.9226 9.76282 12.9226 9.7575 12.9226C9.75217 12.9226 9.74683 12.9226 9.74149 12.9226C9.73615 12.9226 9.73079 12.9226 9.72543 12.9226C9.72008 12.9226 9.71471 12.9226 9.70933 12.9226C9.70396 12.9226 9.69858 12.9226 9.69319 12.9226C9.6878 12.9226 9.6824 12.9226 9.677 12.9226C9.67159 12.9226 9.66618 12.9226 9.66076 12.9226C9.65534 12.9226 9.64991 12.9226 9.64447 12.9226C9.63904 12.9226 9.6336 12.9226 9.62815 12.9226C9.6227 12.9226 9.61724 12.9226 9.61177 12.9226C9.60631 12.9226 9.60084 12.9226 9.59536 12.9226C9.58988 12.9226 9.58439 12.9226 9.5789 12.9226C9.5734 12.9226 9.5679 12.9226 9.56239 12.9226C9.55689 12.9226 9.55137 12.9226 9.54585 12.9226C9.54032 12.9226 9.53479 12.9226 9.52926 12.9226C9.52372 12.9226 9.51818 12.9226 9.51262 12.9226C9.50707 12.9226 9.50152 12.9226 9.49595 12.9226C9.49039 12.9226 9.48481 12.9226 9.47923 12.9226C9.47365 12.9226 9.46807 12.9226 9.46248 12.9226C9.45688 12.9226 9.45128 12.9226 9.44568 12.9226C9.44007 12.9226 9.43446 12.9226 9.42883 12.9226C9.42321 12.9226 9.41759 12.9226 9.41195 12.9226C9.40632 12.9226 9.40068 12.9226 9.39503 12.9226C9.38939 12.9226 9.38373 12.9226 9.37807 12.9226C9.37241 12.9226 9.36674 12.9226 9.36107 12.9226C9.35539 12.9226 9.34971 12.9226 9.34403 12.9226C9.33834 12.9226 9.33265 12.9226 9.32695 12.9226C9.32125 12.9226 9.31554 12.9226 9.30983 12.9226C9.30412 12.9226 9.2984 12.9226 9.29267 12.9226C9.28695 12.9226 9.28121 12.9226 9.27548 12.9226C9.26974 12.9226 9.26399 12.9226 9.25824 12.9226C9.25249 12.9226 9.24673 12.9226 9.24097 12.9226C9.23521 12.9226 9.22944 12.9226 9.22366 12.9226C9.21789 12.9226 9.21211 12.9226 9.20632 12.9226C9.20053 12.9226 9.19474 12.9226 9.18894 12.9226C9.18314 12.9226 9.17733 12.9226 9.17152 12.9226C9.16571 12.9226 9.15989 12.9226 9.15406 12.9226C9.14824 12.9226 9.14241 12.9226 9.13658 12.9226C9.13074 12.9226 9.1249 12.9226 9.11905 12.9226C9.1132 12.9226 9.10735 12.9226 9.10149 12.9226C9.09563 12.9226 9.08977 12.9226 9.0839 12.9226C9.07803 12.9226 9.07215 12.9226 9.06627 12.9226C9.06039 12.9226 9.0545 12.9226 9.0486 12.9226C9.04271 12.9226 9.03681 12.9226 9.03091 12.9226C9.025 12.9226 9.01909 12.9226 9.01318 12.9226C9.00726 12.9226 9.00134 12.9226 8.99541 12.9226C8.98949 12.9226 8.98356 12.9226 8.97762 12.9226C8.97168 12.9226 8.96574 12.9226 8.95979 12.9226C8.95384 12.9226 8.94789 12.9226 8.94193 12.9226C8.93597 12.9226 8.93001 12.9226 8.92404 12.9226C8.91807 12.9226 8.91209 12.9226 8.90611 12.9226C8.90013 12.9226 8.89415 12.9226 8.88816 12.9226C8.88217 12.9226 8.87617 12.9226 8.87017 12.9226C8.86417 12.9226 8.85816 12.9226 8.85215 12.9226C8.84614 12.9226 8.84013 12.9226 8.83411 12.9226C8.82809 12.9226 8.82206 12.9226 8.81603 12.9226C8.81 12.9226 8.80396 12.9226 8.79792 12.9226C8.79188 12.9226 8.78584 12.9226 8.77979 12.9226C8.77374 12.9226 8.76768 12.9226 8.76162 12.9226C8.75556 12.9226 8.7495 12.9226 8.74343 12.9226C8.73736 12.9226 8.73129 12.9226 8.72521 12.9226C8.71913 12.9226 8.71305 12.9226 8.70696 12.9226C8.70087 12.9226 8.69478 12.9226 8.68868 12.9226C8.68258 12.9226 8.67648 12.9226 8.67037 12.9226C8.66427 12.9226 8.65816 12.9226 8.65204 12.9226C8.64593 12.9226 8.63981 12.9226 8.63368 12.9226C8.62756 12.9226 8.62143 12.9226 8.6153 12.9226C8.60916 12.9226 8.60303 12.9226 8.59689 12.9226C8.59074 12.9226 8.5846 12.9226 8.57845 12.9226C8.5723 12.9226 8.56614 12.9226 8.55999 12.9226C8.55383 12.9226 8.54766 12.9226 8.5415 12.9226C8.53533 12.9226 8.52916 12.9226 8.52298 12.9226C8.51681 12.9226 8.51063 12.9226 8.50445 12.9226C8.49826 12.9226 8.49208 12.9226 8.48588 12.9226C8.47969 12.9226 8.4735 12.9226 8.4673 12.9226C8.4611 12.9226 8.4549 12.9226 8.44869 12.9226C8.44248 12.9226 8.43627 12.9226 8.43006 12.9226C8.42384 12.9226 8.41762 12.9226 8.4114 12.9226C8.40518 12.9226 8.39895 12.9226 8.39272 12.9226C8.38649 12.9226 8.38026 12.9226 8.37402 12.9226C8.36778 12.9226 8.36154 12.9226 8.3553 12.9226C8.34905 12.9226 8.34281 12.9226 8.33655 12.9226C8.3303 12.9226 8.32405 12.9226 8.31779 12.9226C8.31153 12.9226 8.30527 12.9226 8.299 12.9226C8.29273 12.9226 8.28647 12.9226 8.28019 12.9226C8.27392 12.9226 8.26764 12.9226 8.26136 12.9226C8.25508 12.9226 8.2488 12.9226 8.24252 12.9226C8.23623 12.9226 8.22994 12.9226 8.22365 12.9226C8.21735 12.9226 8.21106 12.9226 8.20476 12.9226C8.19846 12.9226 8.19216 12.9226 8.18585 12.9226C8.17955 12.9226 8.17324 12.9226 8.16693 12.9226C8.16061 12.9226 8.1543 12.9226 8.14798 12.9226C8.14166 12.9226 8.13534 12.9226 8.12902 12.9226C8.12269 12.9226 8.11637 12.9226 8.11004 12.9226C8.10371 12.9226 8.09738 12.9226 8.09104 12.9226C8.0847 12.9226 8.07837 12.9226 8.07202 12.9226C8.06568 12.9226 8.05934 12.9226 8.05299 12.9226C8.04664 12.9226 8.04029 12.9226 8.03394 12.9226C8.02759 12.9226 8.02123 12.9226 8.01488 12.9226C8.00852 12.9226 8.00216 12.9226 7.99579 12.9226C7.98943 12.9226 7.98307 12.9226 7.9767 12.9226C7.97033 12.9226 7.96396 12.9226 7.95758 12.9226C7.95121 12.9226 7.94484 12.9226 7.93846 12.9226C7.93208 12.9226 7.9257 12.9226 7.91931 12.9226C7.91293 12.9226 7.90654 12.9226 7.90016 12.9226C7.89377 12.9226 7.88738 12.9226 7.88099 12.9226C7.87459 12.9226 7.8682 12.9226 7.8618 12.9226C7.8554 12.9226 7.849 12.9226 7.8426 12.9226C7.8362 12.9226 7.8298 12.9226 7.82339 12.9226C7.81698 12.9226 7.81058 12.9226 7.80417 12.9226C7.79775 12.9226 7.79134 12.9226 7.78493 12.9226C7.77851 12.9226 7.7721 12.9226 7.76568 12.9226C7.75926 12.9226 7.75284 12.9226 7.74642 12.9226C7.73999 12.9226 7.73357 12.9226 7.72714 12.9226C7.72072 12.9226 7.71429 12.9226 7.70786 12.9226C7.70143 12.9226 7.695 12.9226 7.68856 12.9226C7.68213 12.9226 7.6757 12.9226 7.66926 12.9226C7.66282 12.9226 7.65638 12.9226 7.64994 12.9226C7.6435 12.9226 7.63706 12.9226 7.63062 12.9226C7.62417 12.9226 7.61773 12.9226 7.61128 12.9226C7.60483 12.9226 7.59838 12.9226 7.59193 12.9226C7.58548 12.9226 7.57903 12.9226 7.57258 12.9226C7.56613 12.9226 7.55967 12.9226 7.55322 12.9226C7.54676 12.9226 7.5403 12.9226 7.53384 12.9226C7.52739 12.9226 7.52093 12.9226 7.51446 12.9226C7.508 12.9226 7.50154 12.9226 7.49508 12.9226C7.48861 12.9226 7.48215 12.9226 7.47568 12.9226C7.46922 12.9226 7.46275 12.9226 7.45628 12.9226C7.44981 12.9226 7.44334 12.9226 7.43687 12.9226C7.4304 12.9226 7.42393 12.9226 7.41745 12.9226C7.41098 12.9226 7.40451 12.9226 7.39803 12.9226C7.39156 12.9226 7.38508 12.9226 7.3786 12.9226C7.37213 12.9226 7.36565 12.9226 7.35917 12.9226C7.35269 12.9226 7.34621 12.9226 7.33973 12.9226C7.33325 12.9226 7.32677 12.9226 7.32029 12.9226C7.31381 12.9226 7.30732 12.9226 7.30084 12.9226C7.29436 12.9226 7.28787 12.9226 7.28139 12.9226C7.2749 12.9226 7.26842 12.9226 7.26193 12.9226C7.25544 12.9226 7.24896 12.9226 7.24247 12.9226C7.23598 12.9226 7.22949 12.9226 7.223 12.9226C7.21652 12.9226 7.21003 12.9226 7.20354 12.9226C7.19705 12.9226 7.19056 12.9226 7.18407 12.9226C7.17758 12.9226 7.17109 12.9226 7.1646 12.9226C7.1581 12.9226 7.15161 12.9226 7.14512 12.9226C7.13863 12.9226 7.13214 12.9226 7.12564 12.9226C7.11915 12.9226 7.11266 12.9226 7.10617 12.9226C7.09967 12.9226 7.09318 12.9226 7.08669 12.9226C7.08019 12.9226 7.0737 12.9226 7.06721 12.9226C7.06072 12.9226 7.05422 12.9226 7.04773 12.9226C7.04123 12.9226 7.03474 12.9226 7.02825 12.9226C7.02175 12.9226 7.01526 12.9226 7.00877 12.9226C7.00227 12.9226 6.99578 12.9226 6.98929 12.9226C6.98279 12.9226 6.9763 12.9226 6.96981 12.9226C6.96331 12.9226 6.95682 12.9226 6.95033 12.9226C6.94384 12.9226 6.93734 12.9226 6.93085 12.9226C6.92436 12.9226 6.91787 12.9226 6.91138 12.9226C6.90489 12.9226 6.89839 12.9226 6.8919 12.9226C6.88541 12.9226 6.87892 12.9226 6.87243 12.9226C6.86594 12.9226 6.85945 12.9226 6.85296 12.9226C6.84648 12.9226 6.83999 12.9226 6.8335 12.9226C6.82701 12.9226 6.82052 12.9226 6.81404 12.9226C6.80755 12.9226 6.80106 12.9226 6.79458 12.9226C6.78809 12.9226 6.78161 12.9226 6.77512 12.9226C6.76864 12.9226 6.76216 12.9226 6.75567 12.9226C6.74919 12.9226 6.74271 12.9226 6.73623 12.9226C6.72975 12.9226 6.72326 12.9226 6.71678 12.9226C6.71031 12.9226 6.70383 12.9226 6.69735 12.9226C6.69087 12.9226 6.68439 12.9226 6.67792 12.9226C6.67144 12.9226 6.66497 12.9226 6.65849 12.9226C6.65202 12.9226 6.64555 12.9226 6.63907 12.9226C6.6326 12.9226 6.62613 12.9226 6.61966 12.9226C6.61319 12.9226 6.60672 12.9226 6.60026 12.9226C6.59379 12.9226 6.58732 12.9226 6.58086 12.9226C6.57439 12.9226 6.56793 12.9226 6.56147 12.9226C6.555 12.9226 6.54854 12.9226 6.54208 12.9226C6.53562 12.9226 6.52916 12.9226 6.52271 12.9226C6.51625 12.9226 6.50979 12.9226 6.50334 12.9226C6.49689 12.9226 6.49043 12.9226 6.48398 12.9226C6.47753 12.9226 6.47108 12.9226 6.46463 12.9226C6.45818 12.9226 6.45174 12.9226 6.44529 12.9226C6.43885 12.9226 6.4324 12.9226 6.42596 12.9226C6.41952 12.9226 6.41308 12.9226 6.40664 12.9226C6.4002 12.9226 6.39376 12.9226 6.38733 12.9226C6.38089 12.9226 6.37446 12.9226 6.36803 12.9226C6.3616 12.9226 6.35517 12.9226 6.34874 12.9226C6.34231 12.9226 6.33588 12.9226 6.32946 12.9226C6.32304 12.9226 6.31661 12.9226 6.31019 12.9226C6.30377 12.9226 6.29735 12.9226 6.29094 12.9226C6.28452 12.9226 6.27811 12.9226 6.2717 12.9226C6.26528 12.9226 6.25887 12.9226 6.25246 12.9226C6.24606 12.9226 6.23965 12.9226 6.23325 12.9226C6.22684 12.9226 6.22044 12.9226 6.21404 12.9226C6.20764 12.9226 6.20125 12.9226 6.19485 12.9226C6.18846 12.9226 6.18206 12.9226 6.17567 12.9226C6.16928 12.9226 6.16289 12.9226 6.15651 12.9226C6.15012 12.9226 6.14374 12.9226 6.13736 12.9226C6.13098 12.9226 6.1246 12.9226 6.11822 12.9226C6.11185 12.9226 6.10548 12.9226 6.0991 12.9226C6.09273 12.9226 6.08637 12.9226 6.08 12.9226C6.07363 12.9226 6.06727 12.9226 6.06091 12.9226C6.05455 12.9226 6.04819 12.9226 6.04184 12.9226C6.03548 12.9226 6.02913 12.9226 6.02278 12.9226C6.01643 12.9226 6.01008 12.9226 6.00374 12.9226C5.9974 12.9226 5.99106 12.9226 5.98472 12.9226C5.97838 12.9226 5.97204 12.9226 5.96571 12.9226C5.95938 12.9226 5.95305 12.9226 5.94672 12.9226C5.94039 12.9226 5.93407 12.9226 5.92775 12.9226C5.92143 12.9226 5.91511 12.9226 5.9088 12.9226C5.90248 12.9226 5.89617 12.9226 5.88986 12.9226C5.88355 12.9226 5.87725 12.9226 5.87095 12.9226C5.86464 12.9226 5.85835 12.9226 5.85205 12.9226C5.84575 12.9226 5.83946 12.9226 5.83317 12.9226C5.82688 12.9226 5.8206 12.9226 5.81431 12.9226C5.80803 12.9226 5.80175 12.9226 5.79548 12.9226C5.7892 12.9226 5.78293 12.9226 5.77666 12.9226C5.77039 12.9226 5.76412 12.9226 5.75786 12.9226C5.7516 12.9226 5.74534 12.9226 5.73909 12.9226C5.73283 12.9226 5.72658 12.9226 5.72033 12.9226C5.71408 12.9226 5.70784 12.9226 5.7016 12.9226C5.69536 12.9226 5.68912 12.9226 5.68289 12.9226C5.67665 12.9226 5.67042 12.9226 5.6642 12.9226C5.65797 12.9226 5.65175 12.9226 5.64553 12.9226C5.63931 12.9226 5.6331 12.9226 5.62689 12.9226C5.62068 12.9226 5.61447 12.9226 5.60827 12.9226C5.60206 12.9226 5.59587 12.9226 5.58967 12.9226C5.58348 12.9226 5.57728 12.9226 5.5711 12.9226C5.56491 12.9226 5.55873 12.9226 5.55255 12.9226C5.54637 12.9226 5.54019 12.9226 5.53402 12.9226C5.52785 12.9226 5.52169 12.9226 5.51552 12.9226C5.50936 12.9226 5.5032 12.9226 5.49705 12.9226C5.49089 12.9226 5.48475 12.9226 5.4786 12.9226C5.47245 12.9226 5.46631 12.9226 5.46018 12.9226C5.45404 12.9226 5.44791 12.9226 5.44178 12.9226C5.43565 12.9226 5.42953 12.9226 5.42341 12.9226C5.41729 12.9226 5.41117 12.9226 5.40506 12.9226C5.39895 12.9226 5.39285 12.9226 5.38674 12.9226C5.38064 12.9226 5.37455 12.9226 5.36845 12.9226C5.36236 12.9226 5.35627 12.9226 5.35019 12.9226C5.34411 12.9226 5.33803 12.9226 5.33195 12.9226C5.32588 12.9226 5.31981 12.9226 5.31375 12.9226C5.30768 12.9226 5.30162 12.9226 5.29557 12.9226C5.28952 12.9226 5.28347 12.9226 5.27742 12.9226C5.27138 12.9226 5.26534 12.9226 5.2593 12.9226C5.25326 12.9226 5.24723 12.9226 5.24121 12.9226C5.23518 12.9226 5.22916 12.9226 5.22315 12.9226C5.21713 12.9226 5.21112 12.9226 5.20512 12.9226C5.19911 12.9226 5.19311 12.9226 5.18712 12.9226C5.18112 12.9226 5.17513 12.9226 5.16915 12.9226C5.16316 12.9226 5.15718 12.9226 5.15121 12.9226C5.14523 12.9226 5.13926 12.9226 5.1333 12.9226C5.12734 12.9226 5.12138 12.9226 5.11543 12.9226C5.10947 12.9226 5.10352 12.9226 5.09758 12.9226C5.09164 12.9226 5.0857 12.9226 5.07977 12.9226C5.07384 12.9226 5.06791 12.9226 5.06199 12.9226C5.05607 12.9226 5.05016 12.9226 5.04425 12.9226C5.03834 12.9226 5.03243 12.9226 5.02653 12.9226C5.02064 12.9226 5.01474 12.9226 5.00886 12.9226C5.00297 12.9226 4.99709 12.9226 4.99121 12.9226C4.98533 12.9226 4.97946 12.9226 4.9736 12.9226C4.96774 12.9226 4.96188 12.9226 4.95602 12.9226C4.95017 12.9226 4.94432 12.9226 4.93848 12.9226C4.93264 12.9226 4.92681 12.9226 4.92098 12.9226C4.91515 12.9226 4.90932 12.9226 4.90351 12.9226C4.89769 12.9226 4.89188 12.9226 4.88607 12.9226C4.88027 12.9226 4.87447 12.9226 4.86867 12.9226C4.86288 12.9226 4.85709 12.9226 4.85131 12.9226C4.84553 12.9226 4.83975 12.9226 4.83398 12.9226C4.82822 12.9226 4.82245 12.9226 4.8167 12.9226C4.81094 12.9226 4.80519 12.9226 4.79945 12.9226C4.7937 12.9226 4.78796 12.9226 4.78223 12.9226C4.7765 12.9226 4.77078 12.9226 4.76506 12.9226C4.75934 12.9226 4.75363 12.9226 4.74792 12.9226C4.74221 12.9226 4.73651 12.9226 4.73082 12.9226C4.72513 12.9226 4.71944 12.9226 4.71376 12.9226C4.70808 12.9226 4.70241 12.9226 4.69674 12.9226C4.69108 12.9226 4.68542 12.9226 4.67976 12.9226C4.67411 12.9226 4.66846 12.9226 4.66282 12.9226C4.65718 12.9226 4.65155 12.9226 4.64592 12.9226C4.64029 12.9226 4.63467 12.9226 4.62906 12.9226C4.62345 12.9226 4.61784 12.9226 4.61224 12.9226C4.60664 12.9226 4.60105 12.9226 4.59547 12.9226C4.58988 12.9226 4.5843 12.9226 4.57873 12.9226C4.57316 12.9226 4.56759 12.9226 4.56203 12.9226C4.55648 12.9226 4.55093 12.9226 4.54538 12.9226C4.53984 12.9226 4.5343 12.9226 4.52877 12.9226C4.52324 12.9226 4.51772 12.9226 4.51221 12.9226C4.50669 12.9226 4.50118 12.9226 4.49568 12.9226C4.49018 12.9226 4.48469 12.9226 4.4792 12.9226C4.47371 12.9226 4.46824 12.9226 4.46276 12.9226C4.45729 12.9226 4.45183 12.9226 4.44637 12.9226C4.44091 12.9226 4.43547 12.9226 4.43002 12.9226C4.42458 12.9226 4.41915 12.9226 4.41372 12.9226C4.40829 12.9226 4.40287 12.9226 4.39746 12.9226C4.39205 12.9226 4.38664 12.9226 4.38125 12.9226C4.37585 12.9226 4.37046 12.9226 4.36508 12.9226C4.3597 12.9226 4.35432 12.9226 4.34896 12.9226C4.34359 12.9226 4.33823 12.9226 4.33288 12.9226C4.32753 12.9226 4.32219 12.9226 4.31685 12.9226C4.31152 12.9226 4.30619 12.9226 4.30087 12.9226C4.29555 12.9226 4.29024 12.9226 4.28493 12.9226C4.27963 12.9226 4.27433 12.9226 4.26905 12.9226C4.26376 12.9226 4.25848 12.9226 4.25321 12.9226C4.24793 12.9226 4.24267 12.9226 4.23742 12.9226C4.23216 12.9226 4.22691 12.9226 4.22167 12.9226C4.21643 12.9226 4.2112 12.9226 4.20598 12.9226C4.20075 12.9226 4.19554 12.9226 4.19033 12.9226C4.18513 12.9226 4.17993 12.9226 4.17474 12.9226C4.16955 12.9226 4.16436 12.9226 4.15919 12.9226C4.15402 12.9226 4.14885 12.9226 4.14369 12.9226C4.13854 12.9226 4.13339 12.9226 4.12825 12.9226C4.12311 12.9226 4.11798 12.9226 4.11285 12.9226C4.10773 12.9226 4.10261 12.9226 4.09751 12.9226C4.0924 12.9226 4.0873 12.9226 4.08222 12.9226C4.07713 12.9226 4.07205 12.9226 4.06697 12.9226C4.0619 12.9226 4.05684 12.9226 4.05178 12.9226C4.04673 12.9226 4.04168 12.9226 4.03665 12.9226C4.03161 12.9226 4.02658 12.9226 4.02156 12.9226C4.01654 12.9226 4.01153 12.9226 4.00653 12.9226C4.00153 12.9226 3.99654 12.9226 3.99155 12.9226C3.98657 12.9226 3.98159 12.9226 3.97663 12.9226C3.97166 12.9226 3.9667 12.9226 3.96176 12.9226C3.95681 12.9226 3.95187 12.9226 3.94694 12.9226C3.94201 12.9226 3.93709 12.9226 3.93218 12.9226C3.92726 12.9226 3.92236 12.9226 3.91747 12.9226C3.91258 12.9226 3.90769 12.9226 3.90282 12.9226C3.89794 12.9226 3.89307 12.9226 3.88822 12.9226C3.88336 12.9226 3.87851 12.9226 3.87368 12.9226C3.86884 12.9226 3.86401 12.9226 3.85919 12.9226C3.85437 12.9226 3.84956 12.9226 3.84476 12.9226C3.83996 12.9226 3.83517 12.9226 3.83039 12.9226C3.82561 12.9226 3.82084 12.9226 3.81607 12.9226C3.81131 12.9226 3.80656 12.9226 3.80182 12.9226C3.79707 12.9226 3.79234 12.9226 3.78762 12.9226C3.78289 12.9226 3.77818 12.9226 3.77347 12.9226C3.76877 12.9226 3.76407 12.9226 3.75939 12.9226C3.7547 12.9226 3.75003 12.9226 3.74536 12.9226C3.7407 12.9226 3.73604 12.9226 3.7314 12.9226C3.72675 12.9226 3.72211 12.9226 3.71749 12.9226C3.71286 12.9226 3.70825 12.9226 3.70364 12.9226C3.69903 12.9226 3.69444 12.9226 3.68985 12.9226C3.68526 12.9226 3.68069 12.9226 3.67612 12.9226C3.67156 12.9226 3.667 12.9226 3.66245 12.9226C3.65791 12.9226 3.65337 12.9226 3.64885 12.9226C3.64432 12.9226 3.63981 12.9226 3.6353 12.9226C3.6308 12.9226 3.6263 12.9226 3.62182 12.9226C3.61733 12.9226 3.61286 12.9226 3.60839 12.9226C3.60393 12.9226 3.59948 12.9226 3.59503 12.9226C3.59059 12.9226 3.58616 12.9226 3.58174 12.9226C3.57731 12.9226 3.5729 12.9226 3.5685 12.9226C3.5641 12.9226 3.55971 12.9226 3.55533 12.9226C3.55095 12.9226 3.54658 12.9226 3.54222 12.9226C3.53786 12.9226 3.53351 12.9226 3.52917 12.9226C3.52483 12.9226 3.52051 12.9226 3.51619 12.9226C3.51187 12.9226 3.50757 12.9226 3.50327 12.9226C3.49898 12.9226 3.49469 12.9226 3.49042 12.9226C3.48615 12.9226 3.48188 12.9226 3.47763 12.9226C3.47338 12.9226 3.46914 12.9226 3.46491 12.9226C3.46068 12.9226 3.45646 12.9226 3.45225 12.9226C3.44804 12.9226 3.44385 12.9226 3.43966 12.9226C3.43547 12.9226 3.4313 12.9226 3.42713 12.9226C3.42297 12.9226 3.41882 12.9226 3.41467 12.9226C3.41053 12.9226 3.4064 12.9226 3.40228 12.9226C3.39816 12.9226 3.39405 12.9226 3.38996 12.9226C3.38586 12.9226 3.38177 12.9226 3.3777 12.9226C3.37363 12.9226 3.36956 12.9226 3.36551 12.9226C3.36146 12.9226 3.35742 12.9226 3.35339 12.9226C3.34936 12.9226 3.34534 12.9226 3.34133 12.9226C3.33733 12.9226 3.33333 12.9226 3.32935 12.9226C3.32537 12.9226 3.32139 12.9226 3.31743 12.9226C3.31347 12.9226 3.30953 12.9226 3.30559 12.9226C3.30165 12.9226 3.29772 12.9226 3.29381 12.9226C3.2899 12.9226 3.28599 12.9226 3.2821 12.9226C3.27821 12.9226 3.27433 12.9226 3.27047 12.9226C3.2666 12.9226 3.26275 12.9226 3.2589 12.9226C3.25506 12.9226 3.25123 12.9226 3.24741 12.9226C3.24359 12.9226 3.23978 12.9226 3.23598 12.9226C3.23219 12.9226 3.2284 12.9226 3.22463 12.9226C3.22086 12.9226 3.2171 12.9226 3.21335 12.9226C3.2096 12.9226 3.20587 12.9226 3.20214 12.9226C3.19842 12.9226 3.19471 12.9226 3.19101 12.9226C3.18731 12.9226 3.18362 12.9226 3.17994 12.9226C3.17627 12.9226 3.1726 12.9226 3.16895 12.9226C3.1653 12.9226 3.16166 12.9226 3.15804 12.9226C3.15441 12.9226 3.15079 12.9226 3.14719 12.9226C3.14359 12.9226 3.14 12.9226 3.13642 12.9226C3.13285 12.9226 3.12928 12.9226 3.12573 12.9226C3.12218 12.9226 3.11864 12.9226 3.11511 12.9226C3.11158 12.9226 3.10807 12.9226 3.10457 12.9226C3.10106 12.9226 3.09757 12.9226 3.0941 12.9226C3.09062 12.9226 3.08715 12.9226 3.0837 12.9226C3.08025 12.9226 3.07681 12.9226 3.07338 12.9226C3.06996 12.9226 3.06654 12.9226 3.06314 12.9226C3.05974 12.9226 3.05635 12.9226 3.05298 12.9226C3.0496 12.9226 3.04624 12.9226 3.04289 12.9226C3.03954 12.9226 3.0362 12.9226 3.03288 12.9226C3.02956 12.9226 3.02624 12.9226 3.02295 12.9226C3.01965 12.9226 3.01636 12.9226 3.01309 12.9226C3.00982 12.9226 3.00656 12.9226 3.00331 12.9226C3.00007 12.9226 2.99683 12.9226 2.99361 12.9226C2.99039 12.9226 2.98719 12.9226 2.98399 12.9226C2.9808 12.9226 2.97762 12.9226 2.97445 12.9226C2.97129 12.9226 2.96813 12.9226 2.96499 12.9226C2.96185 12.9226 2.95872 12.9226 2.95561 12.9226C2.9525 12.9226 2.9494 12.9226 2.94631 12.9226C2.94322 12.9226 2.94015 12.9226 2.93709 12.9226C2.93403 12.9226 2.93098 12.9226 2.92795 12.9226C2.92491 12.9226 2.92189 12.9226 2.91889 12.9226C2.91588 12.9226 2.91289 12.9226 2.90991 12.9226C2.90693 12.9226 2.90396 12.9226 2.90101 12.9226C2.89806 12.9226 2.89512 12.9226 2.8922 12.9226C2.88927 12.9226 2.88636 12.9226 2.88347 12.9226C2.88057 12.9226 2.87769 12.9226 2.87482 12.9226C2.87195 12.9226 2.86909 12.9226 2.86625 12.9226C2.86341 12.9226 2.86058 12.9226 2.85777 12.9226C2.85495 12.9226 2.85215 12.9226 2.84937 12.9226C2.84658 12.9226 2.84381 12.9226 2.84105 12.9226C2.83829 12.9226 2.83555 12.9226 2.83282 12.9226C2.83009 12.9226 2.82737 12.9226 2.82467 12.9226C2.82197 12.9226 2.81928 12.9226 2.81661 12.9226C2.81393 12.9226 2.81128 12.9226 2.80863 12.9226C2.80599 12.9226 2.80335 12.9226 2.80074 12.9226C2.79812 12.9226 2.79552 12.9226 2.79293 12.9226C2.79034 12.9226 2.78777 12.9226 2.78521 12.9226C2.78265 12.9226 2.78011 12.9226 2.77758 12.9226C2.77505 12.9226 2.77253 12.9226 2.77003 12.9226C2.76753 12.9226 2.76504 12.9226 2.76257 12.9226C2.7601 12.9226 2.75764 12.9226 2.7552 12.9226C2.75275 12.9226 2.75033 12.9226 2.74791 12.9226C2.7455 12.9226 2.7431 12.9226 2.74072 12.9226C2.73833 12.9226 2.73596 12.9226 2.73361 12.9226C2.73125 12.9226 2.72891 12.9226 2.72659 12.9226C2.72426 12.9226 2.72195 12.9226 2.71965 12.9226C2.71736 12.9226 2.71508 12.9226 2.71281 12.9226C2.71055 12.9226 2.7083 12.9226 2.70606 12.9226C2.70382 12.9226 2.7016 12.9226 2.6994 12.9226C2.69719 12.9226 2.695 12.9226 2.69282 12.9226C2.69065 12.9226 2.68849 12.9226 2.68634 12.9226C2.6842 12.9226 2.68207 12.9226 2.67995 12.9226C2.67784 12.9226 2.67574 12.9226 2.67365 12.9226C2.67157 12.9226 2.6695 12.9226 2.66744 12.9226C2.66539 12.9226 2.66335 12.9226 2.66132 12.9226C2.6593 12.9226 2.65729 12.9226 2.6553 12.9226C2.65331 12.9226 2.65133 12.9226 2.64937 12.9226C2.64741 12.9226 2.64546 12.9226 2.64353 12.9226C2.6416 12.9226 2.63968 12.9226 2.63778 12.9226C2.63588 12.9226 2.634 12.9226 2.63213 12.9226C2.63026 12.9226 2.62841 12.9226 2.62657 12.9226C2.62473 12.9226 2.62291 12.9226 2.6211 12.9226C2.6193 12.9226 2.61751 12.9226 2.61573 12.9226C2.61396 12.9226 2.6122 12.9226 2.61045 12.9226C2.60871 12.9226 2.60698 12.9226 2.60527 12.9226C2.60356 12.9226 2.60186 12.9226 2.60019 12.9226C2.59851 12.9226 2.59684 12.9226 2.59519 12.9226C2.59355 12.9226 2.59191 12.9226 2.5903 12.9226C2.58868 12.9226 2.58708 12.9226 2.5855 12.9226C2.58392 12.9226 2.58235 12.9226 2.5808 12.9226C2.57925 12.9226 2.57771 12.9226 2.57619 12.9226C2.57467 12.9226 2.57317 12.9226 2.57168 12.9226C2.5702 12.9226 2.56873 12.9226 2.56727 12.9226C2.56582 12.9226 2.56438 12.9226 2.56296 12.9226C2.56154 12.9226 2.56013 12.9226 2.55874 12.9226C2.55735 12.9226 2.55598 12.9226 2.55463 12.9226C2.55327 12.9226 2.55193 12.9226 2.55061 12.9226C2.54928 12.9226 2.54798 12.9226 2.54669 12.9226C2.5454 12.9226 2.54413 12.9226 2.54287 12.9226C2.54161 12.9226 2.54037 12.9226 2.53915 12.9226C2.53793 12.9226 2.53672 12.9226 2.53553 12.9226C2.53434 12.9226 2.53317 12.9226 2.53201 12.9226C2.53085 12.9226 2.52971 12.9226 2.52859 12.9226C2.52747 12.9226 2.52636 12.9226 2.52527 12.9226C2.52418 12.9226 2.52311 12.9226 2.52205 12.9226C2.521 12.9226 2.51996 12.9226 2.51894 12.9226C2.51792 12.9226 2.51691 12.9226 2.51592 12.9226C2.51494 12.9226 2.51397 12.9226 2.51301 12.9226C2.51206 12.9226 2.51112 12.9226 2.5102 12.9226C2.50929 12.9226 2.50838 12.9226 2.5075 12.9226C2.50661 12.9226 2.50575 12.9226 2.5049 12.9226C2.50404 12.9226 2.50321 12.9226 2.5024 12.9226C2.50158 12.9226 2.50078 12.9226 2.5 12.9226V13.7226Z" fill="white"/>
</svg>
