<svg width="16" height="16" viewBox="0 0 16 16" fill="none" xmlns="http://www.w3.org/2000/svg">
<g clip-path="url(#clip0_262_7)">
<path fill-rule="evenodd" clip-rule="evenodd" d="M8.00022 0.433594L8.65866 1.64093L10.591 5.18412L14.5579 5.92698L15.9096 6.18011L14.9648 7.17942L12.1922 10.1121L12.7115 14.1144L12.8885 15.4782L11.6461 14.8884L8.00022 13.1577L4.35429 14.8884L3.11194 15.4782L3.2889 14.1144L3.80823 10.1121L1.03559 7.17942L0.0908203 6.18011L1.44254 5.92698L5.40943 5.18412L7.34177 1.64093L8.00022 0.433594ZM8.00022 3.56646L6.55586 6.21487L6.3854 6.52743L6.03546 6.59296L3.07035 7.14822L5.1428 9.34029L5.38739 9.59899L5.34158 9.95205L4.95339 12.9436L7.67859 11.65L8.00022 11.4973L8.32184 11.65L11.047 12.9436L10.6588 9.95205L10.613 9.59899L10.8576 9.34029L12.9301 7.14822L9.96497 6.59296L9.61503 6.52743L9.44457 6.21487L8.00022 3.56646Z" fill="white"/>
</g>
<defs>
<clipPath id="clip0_262_7">
<rect width="16" height="16" fill="white"/>
</clipPath>
</defs>
</svg>
