<svg width="74" height="76" viewBox="0 0 74 76" fill="none" xmlns="http://www.w3.org/2000/svg">
<path d="M74 57.5555C74 67.2052 66.1774 75.0278 56.5278 75.0278H17.4722C7.82258 75.0278 0 67.2052 0 57.5555V17.4722C0 7.82258 7.82258 0 17.4722 0H56.5278C66.1774 0 74 7.82258 74 17.4722V57.5555Z" fill="#111111"/>
<path d="M39.8499 64.5253C40.2354 64.3671 40.6134 64.19 40.9826 63.9946L41.0546 63.9564C42.6951 63.0878 44.1322 61.8863 45.2721 60.4302L45.8279 59.7201C46.3467 59.0573 46.7808 58.3334 47.1202 57.5651C47.5304 56.6365 47.798 55.6522 47.9142 54.6451L47.9283 54.5225C48.017 53.754 48.0234 52.9784 47.9476 52.2086L47.9431 52.1624C47.8081 50.7916 47.424 49.4562 46.8091 48.2209L46.115 46.8258C45.3184 45.2251 44.3085 43.7374 43.1126 42.4027L38.54 37.2997L37.3296 35.781L36.2246 33.9566C35.6754 33.0497 35.3074 32.0466 35.141 31.002L35.0608 30.4996C34.9603 29.8689 34.9736 29.2256 35.1 28.5995C35.2918 27.6494 35.7383 26.768 36.3926 26.0478L37.5717 24.75L37.5699 24.7497L37.5688 24.7504C37.5209 24.7807 37.4733 24.8115 37.426 24.8427L37.2048 24.9888C36.3851 25.5301 35.6706 26.2134 35.0956 27.0059C34.4448 27.9028 33.9856 28.9217 33.7461 30.0004L33.6157 30.5873C33.3556 31.7589 33.3317 32.97 33.5457 34.1507C33.7053 35.0318 33.9953 35.8847 34.4062 36.6819L34.7878 37.4222C35.4083 38.6259 36.1934 39.7392 37.121 40.7306L38.7893 42.5138C40.3466 44.3223 41.7464 46.2583 42.9738 48.301L43.1467 48.5887L44.3824 51.0926C44.7409 51.8191 45.0146 52.5836 45.1981 53.3716L45.2632 53.651C45.5177 54.7431 45.5661 55.8723 45.4061 56.9819L45.3027 57.3998C44.8526 60.2869 42.7812 62.8198 39.7613 64.5128C39.6921 64.5568 39.6135 64.6129 39.6016 64.6214L39.6001 64.6225C39.6001 64.6225 39.7267 64.5778 39.8499 64.5253Z" fill="#626262"/>
<path d="M37.2433 16.6083C37.0105 19.4391 34.3084 21.5271 31.2081 21.2721C28.1078 21.017 25.7832 18.5155 26.0161 15.6848C26.2489 12.8541 28.951 10.7661 32.0513 11.0211C35.1516 11.2761 37.4762 13.7776 37.2433 16.6083Z" fill="white"/>
<path d="M30.4807 21.1529C33.2065 20.9989 35.4458 19.0434 35.6569 16.4778C35.8679 13.9123 33.9782 11.6172 31.3143 11.0198C31.596 11.0039 31.8829 11.0072 32.1734 11.0311C35.2737 11.2862 37.5982 13.7877 37.3654 16.6184C37.1325 19.4491 34.4304 21.5371 31.3301 21.2821C31.0397 21.2582 30.7561 21.2146 30.4807 21.1529Z" fill="#626262"/>
<path fill-rule="evenodd" clip-rule="evenodd" d="M37.3296 35.7781L38.54 37.2969L43.1126 42.3999C44.3085 43.7346 45.3184 45.2223 46.115 46.823L46.8091 48.2181C47.424 49.4534 47.8081 50.7888 47.9431 52.1596L47.9476 52.2057C48.0234 52.9756 48.017 53.7512 47.9283 54.5197L47.9142 54.6423C47.798 55.6494 47.5304 56.6337 47.1202 57.5623C46.7808 58.3306 46.3467 59.0545 45.8279 59.7173L45.2721 60.4274C44.1322 61.8835 42.6951 63.085 41.0546 63.9536L40.9826 63.9918C40.5344 64.229 40.0732 64.4392 39.6016 64.6214C39.6135 64.6129 39.6921 64.5568 39.7613 64.5128C42.7812 62.8198 44.8526 60.2869 45.3027 57.3998L45.4061 56.9819C45.5661 55.8723 45.5177 54.7431 45.2632 53.651L45.1981 53.3716C45.0146 52.5836 44.7409 51.8191 44.3824 51.0926L43.1467 48.5887L42.9738 48.301C41.7464 46.2583 40.3466 44.3223 38.7893 42.5138L37.121 40.7306C36.1934 39.7392 35.4083 38.6259 34.7878 37.4222L34.4062 36.6819C33.9953 35.8847 33.7053 35.0318 33.5457 34.1507C33.3317 32.97 33.3556 31.7589 33.6157 30.5873L33.7461 30.0004C33.9856 28.9217 34.4448 27.9028 35.0956 27.0059C35.6706 26.2134 36.3851 25.5301 37.2048 24.9888L37.426 24.8427C37.4733 24.8115 37.5209 24.7807 37.5688 24.7504L36.3926 26.045C35.7383 26.7652 35.2918 27.6466 35.1 28.5967C34.9736 29.2228 34.9603 29.8661 35.0608 30.4967L35.141 30.9992C35.3074 32.0438 35.6754 33.0469 36.2246 33.9537L37.3296 35.7781Z" fill="#626262"/>
<path d="M37.5717 24.7472C37.4835 24.7336 37.3972 24.7098 37.3136 24.6784C36.6495 24.429 35.9301 24.2676 35.2228 24.2676C34.5873 24.2676 33.956 24.3691 33.3531 24.5681L32.9371 24.7055C32.2107 24.9454 31.5198 25.2801 30.8827 25.7009L30.6615 25.8469C29.8418 26.3883 29.1273 27.0716 28.5523 27.8641C27.9016 28.7609 27.4423 29.7799 27.2028 30.8586L27.0724 31.4455C26.8123 32.6171 26.7884 33.8281 27.0024 35.0089C27.162 35.8899 27.452 36.7428 27.8629 37.54L28.2445 38.2803C28.865 39.4841 29.6501 40.5974 30.5777 41.5887L32.246 43.372C33.8033 45.1805 35.2031 47.1164 36.4305 49.1592L36.6034 49.4469L37.8391 51.9507C38.1976 52.6772 38.4713 53.4417 38.6548 54.2297L38.7199 54.5092C38.9744 55.6012 39.0228 56.7304 38.8628 57.84L38.7594 58.2579C38.3093 61.145 36.2379 63.6779 33.218 65.3709C33.2438 65.3747 33.2695 65.3783 33.2953 65.3819C34.313 65.5224 35.3447 65.5322 36.3649 65.411L36.4764 65.3977C37.549 65.2702 38.5989 65.0089 39.6016 64.6214C39.6135 64.6129 39.6921 64.5568 39.7613 64.5128C42.7812 62.8198 44.8526 60.2869 45.3027 57.3998L45.4061 56.9819C45.5661 55.8723 45.5177 54.7431 45.2632 53.651L45.1981 53.3716C45.0146 52.5836 44.7409 51.8191 44.3824 51.0926L43.1467 48.5887L42.9738 48.301C41.7464 46.2583 40.3466 44.3223 38.7893 42.5138L37.121 40.7306C36.1934 39.7392 35.4083 38.6259 34.7878 37.4222L34.4062 36.6819C33.9953 35.8847 33.7053 35.0318 33.5457 34.1507C33.3317 32.97 33.3556 31.7589 33.6157 30.5873L33.7461 30.0004C33.9856 28.9217 34.4448 27.9028 35.0956 27.0059C35.6706 26.2134 36.3851 25.5301 37.2048 24.9888L37.426 24.8427C37.4733 24.8115 37.5209 24.7807 37.5688 24.7504L37.5717 24.7472Z" fill="white"/>
</svg>
